<?xml version="1.0" encoding="UTF-8" standalone="no"?>
<!-- Created with Inkscape (http://www.inkscape.org/) -->

<svg
   version="1.1"
   id="svg2"
   width="511.99997"
   height="511.99997"
   viewBox="0 0 511.99997 511.99997"
   sodipodi:docname="favicon.svg"
   inkscape:version="1.2.2 (1:1.2.2+202212051552+b0a8486541)"
   xmlns:inkscape="http://www.inkscape.org/namespaces/inkscape"
   xmlns:sodipodi="http://sodipodi.sourceforge.net/DTD/sodipodi-0.dtd"
   xmlns="http://www.w3.org/2000/svg"
   xmlns:svg="http://www.w3.org/2000/svg">
  <defs
     id="defs6">
    <clipPath
       clipPathUnits="userSpaceOnUse"
       id="clipPath3105">
      <circle
         style="opacity:1;fill:#4eff53;fill-opacity:1;stroke:none;stroke-width:0.83961"
         id="circle3107"
         cx="150.06819"
         cy="206.70357"
         r="84.641479" />
    </clipPath>
  </defs>
  <sodipodi:namedview
     id="namedview4"
     pagecolor="#ffffff"
     bordercolor="#000000"
     borderopacity="0.25"
     inkscape:showpageshadow="2"
     inkscape:pageopacity="0.0"
     inkscape:pagecheckerboard="0"
     inkscape:deskcolor="#d1d1d1"
     showgrid="false"
     inkscape:zoom="0.66111111"
     inkscape:cx="161.84874"
     inkscape:cy="245.79832"
     inkscape:window-width="1309"
     inkscape:window-height="704"
     inkscape:window-x="0"
     inkscape:window-y="0"
     inkscape:window-maximized="1"
     inkscape:current-layer="g8" />
  <g
     inkscape:groupmode="layer"
     inkscape:label="Image"
     id="g8"
     transform="translate(-65.4267,-122.06209)">
    <path
       id="circle3323"
       style="opacity:1;fill:#ffb100;stroke-width:2.53942"
       d="M 577.42667,378.06208 A 255.99998,255.99998 0 0 1 321.42668,634.06206 255.99998,255.99998 0 0 1 65.4267,378.06208 255.99998,255.99998 0 0 1 321.42668,122.06209 255.99998,255.99998 0 0 1 577.42667,378.06208 Z" />
    <path
       id="path461"
       clip-path="url(#clipPath3105)"
       style="fill:#000000;fill-opacity:1;stroke:none"
       d="m 138.77035,68.465409 -1.54102,6.09961 -76.060545,39.224611 -32.667968,83.68164 c 13.402626,6.01473 47.132073,10.49132 62.611328,6.73437 5.361784,17.08295 11.692265,22.93681 14.382815,27.30664 -7.336371,-29.02222 -4.42431,-11.92025 -8.812501,-44.32031 0,0 11.015371,-0.60081 13.451171,-6.57422 3.07478,-7.5404 -4.22852,-24.98242 -4.22852,-24.98242 7.33894,9.55287 14.49857,10.05259 21.69141,12.20703 -4.61917,-7.10134 -5.25658,-14.87408 -4.41992,-22.89649 9.63773,14.96982 18.51381,20.4142 26.89258,19.67579 8.37877,0.73841 17.25289,-4.70597 26.89062,-19.67579 0.83666,8.02241 0.19926,15.79515 -4.41992,22.89649 7.19284,-2.15444 14.35247,-2.65416 21.69141,-12.20703 0,0 -7.3033,17.44202 -4.22852,24.98242 2.4358,5.97341 13.45313,6.57422 13.45313,6.57422 -4.3882,32.40006 -1.47613,15.29809 -8.8125,44.32031 2.69054,-4.36983 9.01907,-10.22369 14.38086,-27.30664 15.47925,3.75695 49.2087,-0.71964 62.61132,-6.73437 l -32.66797,-83.68164 -76.06054,-39.224611 -1.54102,-6.09961 -11.29883,2.855469 z M 150.06836,122.0625 A 84.641479,84.641479 0 0 0 65.425781,206.70312 84.641479,84.641479 0 0 0 150.06836,291.3457 58.324131,84.641479 0 0 1 91.744141,206.70312 58.324131,84.641479 0 0 1 150.06836,122.0625 Z m 0,169.2832 a 84.641479,84.641479 0 0 0 84.64062,-84.64258 84.641479,84.641479 0 0 0 -79.68359,-84.3164 58.324131,84.641479 0 0 1 53.36719,84.3164 58.324131,84.641479 0 0 1 -58.32422,84.64258 z M 83.068359,222.54492 a 8.9666386,8.9666386 0 0 1 8.966797,8.9668 8.9666386,8.9666386 0 0 1 -8.966797,8.9668 8.9666386,8.9666386 0 0 1 -8.966797,-8.9668 8.9666386,8.9666386 0 0 1 8.966797,-8.9668 z m 134.000001,0 a 8.9666386,8.9666386 0 0 1 8.9668,8.9668 8.9666386,8.9666386 0 0 1 -8.9668,8.9668 8.9666386,8.9666386 0 0 1 -8.9668,-8.9668 8.9666386,8.9666386 0 0 1 8.9668,-8.9668 z"
       transform="matrix(3.0245216,0,0,3.0245216,-132.45777,-247.11733)" />
  </g>
</svg>
