<?xml version="1.0" encoding="UTF-8" standalone="no"?>
<svg
   xmlns:dc="http://purl.org/dc/elements/1.1/"
   xmlns:cc="http://creativecommons.org/ns#"
   xmlns:rdf="http://www.w3.org/1999/02/22-rdf-syntax-ns#"
   xmlns:svg="http://www.w3.org/2000/svg"
   xmlns="http://www.w3.org/2000/svg"
   xmlns:xlink="http://www.w3.org/1999/xlink"
   xmlns:sodipodi="http://sodipodi.sourceforge.net/DTD/sodipodi-0.dtd"
   xmlns:inkscape="http://www.inkscape.org/namespaces/inkscape"
   width="128"
   height="128"
   viewBox="0 0 13.159839 13.1584"
   preserveAspectRatio="xMinYMin meet"
   id="svg2"
   version="1.1"
   inkscape:version="0.48.4 r9939"
   sodipodi:docname="chrome-7.svg">
  <metadata
     id="metadata29">
    <rdf:RDF>
      <cc:Work
         rdf:about="">
        <dc:format>image/svg+xml</dc:format>
        <dc:type
           rdf:resource="http://purl.org/dc/dcmitype/StillImage" />
      </cc:Work>
    </rdf:RDF>
  </metadata>
  <sodipodi:namedview
     pagecolor="#ffffff"
     bordercolor="#666666"
     borderopacity="1"
     objecttolerance="10"
     gridtolerance="10"
     guidetolerance="10"
     inkscape:pageopacity="0"
     inkscape:pageshadow="2"
     inkscape:window-width="1319"
     inkscape:window-height="744"
     id="namedview27"
     showgrid="false"
     inkscape:zoom="3.6239778"
     inkscape:cx="35.477891"
     inkscape:cy="70.656957"
     inkscape:window-x="41"
     inkscape:window-y="24"
     inkscape:window-maximized="1"
     inkscape:current-layer="svg2" />
  <defs
     id="defs4">
    <linearGradient
       x1="127.4696"
       y1="82.259239"
       x2="127.4696"
       y2="173.66644"
       id="a"
       gradientUnits="userSpaceOnUse"
       gradientTransform="matrix(0.05130927,0,0,0.05130927,0.31525646,-0.53573553)">
      <stop
         stop-color="#86BBE5"
         offset="0%"
         id="stop7" />
      <stop
         stop-color="#1072BA"
         offset="100%"
         id="stop9" />
    </linearGradient>
    <linearGradient
       inkscape:collect="always"
       xlink:href="#a"
       id="linearGradient3018"
       gradientUnits="userSpaceOnUse"
       gradientTransform="matrix(0.05130927,0,0,0.05130927,0.31525646,-0.53573553)"
       x1="127.4696"
       y1="82.259239"
       x2="127.4696"
       y2="173.66644" />
  </defs>
  <g
     id="g3008"
     transform="translate(-0.30879224,0.535105)">
    <path
       style="fill:#ef3f36"
       inkscape:connector-curvature="0"
       id="path11"
       d="m 6.8720171,-0.53393971 c 0,0 3.8646149,-0.17342534 5.9135479,3.71109711 H 6.543176 c 0,0 -1.1780609,-0.037969 -2.1843897,1.3911996 C 4.0697099,5.1682137 3.7589809,5.7861313 4.1076787,7.0039058 3.605361,6.15289 1.4408793,2.3840186 1.4408793,2.3840186 c 0,0 1.5267074,-2.76438965 5.4310865,-2.91795831 z" />
    <path
       style="fill:#fcd900"
       inkscape:connector-curvature="0"
       id="path13"
       d="m 12.584997,9.3273949 c 0,0 -1.783305,3.4346431 -6.1700942,3.2648091 0.5420312,-0.937728 3.1220667,-5.4058425 3.1220667,-5.4058425 0,0 0.6233565,-1.0009415 -0.1120082,-2.5872702 C 9.0509167,4.0480297 8.6696888,3.4716726 7.4411396,3.164484 c 0.9883192,-0.00898 5.3335984,0 5.3335984,0 0,0 1.627838,2.7047683 -0.189741,6.1629109 z" />
    <path
       style="fill:#61bc5b"
       inkscape:connector-curvature="0"
       id="path15"
       d="m 1.1861287,9.3544862 c 0,0 -2.08320774,-3.2612176 0.2583422,-6.9759063 0.5402354,0.9377282 3.1202708,5.4058425 3.1202708,5.4058425 0,0 0.5565004,1.040706 2.2963979,1.1960192 0.663121,-0.048744 1.353282,-0.090304 2.2350319,-0.9990942 -0.4861041,0.8600461 -2.6669021,4.6180916 -2.6669021,4.6180916 0,0 -3.1581884,0.05782 -5.243192,-3.2449528 z" />
    <path
       style="fill:#5ab055"
       inkscape:connector-curvature="0"
       id="path17"
       d="M 6.413107,12.624734 7.2911626,8.9606362 c 0,0 0.9648195,-0.075938 1.7742746,-0.9630237 C 8.5631195,8.8811581 6.413107,12.624734 6.413107,12.624734 z" />
    <path
       style="fill:#ffffff"
       inkscape:connector-curvature="0"
       id="path19"
       d="m 3.9306104,6.086034 c 0,-1.6152159 1.3099258,-2.9251417 2.9251417,-2.9251417 1.6152159,0 2.9251416,1.3099258 2.9251416,2.9251417 0,1.6152674 -1.3099257,2.9251418 -2.9251416,2.9251418 C 5.2405362,9.00938 3.9306104,7.7013014 3.9306104,6.086034 z" />
    <path
       style="fill:url(#linearGradient3018)"
       inkscape:connector-curvature="0"
       id="path21"
       d="m 4.4202035,6.086034 c 0,-1.3442003 1.0895011,-2.4354973 2.4355486,-2.4354973 1.3442003,0 2.4354972,1.0895011 2.4354972,2.4354973 0,1.3442518 -1.0894497,2.4355488 -2.4354972,2.4355488 -1.3442517,0 -2.4355486,-1.091297 -2.4355486,-2.4355488 z" />
    <path
       style="fill:#eaca05"
       inkscape:connector-curvature="0"
       id="path23"
       d="M 12.772891,3.1663311 9.1575374,4.2268938 c 0,0 -0.5456228,-0.8004247 -1.7181936,-1.0605627 1.0172063,-0.00544 5.3335472,0 5.3335472,0 z" />
    <path
       style="fill:#df3a32"
       inkscape:connector-curvature="0"
       id="path25"
       d="M 4.0372311,6.8701938 C 3.5294745,5.9902909 1.4408793,2.3840186 1.4408793,2.3840186 L 4.118505,5.0327059 c 0,0 -0.2746585,0.5655308 -0.1716295,1.3749346 l 0.090304,0.4625533 z" />
  </g>
</svg>
