<?xml version="1.0" encoding="UTF-8" standalone="no"?>
<svg
   xmlns:dc="http://purl.org/dc/elements/1.1/"
   xmlns:cc="http://creativecommons.org/ns#"
   xmlns:rdf="http://www.w3.org/1999/02/22-rdf-syntax-ns#"
   xmlns:svg="http://www.w3.org/2000/svg"
   xmlns="http://www.w3.org/2000/svg"
   xmlns:sodipodi="http://sodipodi.sourceforge.net/DTD/sodipodi-0.dtd"
   xmlns:inkscape="http://www.inkscape.org/namespaces/inkscape"
   height="32"
   viewBox="0 0 25.6 25.6"
   width="32"
   id="svg2"
   version="1.1"
   inkscape:version="0.48.4 r9939"
   sodipodi:docname="correct.svg">
  <metadata
     id="metadata12">
    <rdf:RDF>
      <cc:Work
         rdf:about="">
        <dc:format>image/svg+xml</dc:format>
        <dc:type
           rdf:resource="http://purl.org/dc/dcmitype/StillImage" />
      </cc:Work>
    </rdf:RDF>
  </metadata>
  <defs
     id="defs10" />
  <sodipodi:namedview
     pagecolor="#ffffff"
     bordercolor="#666666"
     borderopacity="1"
     objecttolerance="10"
     gridtolerance="10"
     guidetolerance="10"
     inkscape:pageopacity="0"
     inkscape:pageshadow="2"
     inkscape:window-width="1319"
     inkscape:window-height="744"
     id="namedview8"
     showgrid="false"
     fit-margin-top="0"
     fit-margin-left="0"
     fit-margin-right="0"
     fit-margin-bottom="0"
     inkscape:zoom="5.9"
     inkscape:cx="-1.1828515"
     inkscape:cy="16.578833"
     inkscape:window-x="41"
     inkscape:window-y="24"
     inkscape:window-maximized="1"
     inkscape:current-layer="svg2" />
  <g
     id="g19"
     transform="matrix(0.8,0,0,0.8,-41.138983,-387.21139)" />
  <g
     id="g21"
     transform="matrix(0.8,0,0,0.8,-41.138983,-387.21139)" />
  <g
     id="g23"
     transform="matrix(0.8,0,0,0.8,-41.138983,-387.21139)" />
  <g
     id="g25"
     transform="matrix(0.8,0,0,0.8,-41.138983,-387.21139)" />
  <g
     id="g27"
     transform="matrix(0.8,0,0,0.8,-41.138983,-387.21139)" />
  <g
     id="g29"
     transform="matrix(0.8,0,0,0.8,-41.138983,-387.21139)" />
  <g
     id="g31"
     transform="matrix(0.8,0,0,0.8,-41.138983,-387.21139)" />
  <g
     id="g33"
     transform="matrix(0.8,0,0,0.8,-41.138983,-387.21139)" />
  <g
     id="g35"
     transform="matrix(0.8,0,0,0.8,-41.138983,-387.21139)" />
  <g
     id="g37"
     transform="matrix(0.8,0,0,0.8,-41.138983,-387.21139)" />
  <g
     id="g39"
     transform="matrix(0.8,0,0,0.8,-41.138983,-387.21139)" />
  <g
     id="g41"
     transform="matrix(0.8,0,0,0.8,-41.138983,-387.21139)" />
  <g
     id="g43"
     transform="matrix(0.8,0,0,0.8,-41.138983,-387.21139)" />
  <g
     id="g45"
     transform="matrix(0.8,0,0,0.8,-41.138983,-387.21139)" />
  <g
     id="g47"
     transform="matrix(0.8,0,0,0.8,-41.138983,-387.21139)" />
  <path
     sodipodi:type="arc"
     style="color:#000000;fill:#08b500;fill-opacity:1;fill-rule:nonzero;stroke:#0087ff;stroke-width:0;stroke-linecap:butt;stroke-linejoin:miter;stroke-miterlimit:4;stroke-opacity:1;stroke-dasharray:none;stroke-dashoffset:0;marker:none;visibility:visible;display:inline;overflow:visible;enable-background:accumulate"
     id="path3001"
     sodipodi:cx="-53.050846"
     sodipodi:cy="-5.9661016"
     sodipodi:rx="24.576271"
     sodipodi:ry="24.576271"
     d="m -28.474575,-5.9661016 a 24.576271,24.576271 0 1 1 -49.152542,0 24.576271,24.576271 0 1 1 49.152542,0 z"
     transform="matrix(0.52082759,0,0,0.52082759,40.430344,15.90731)" />
  <path
     inkscape:connector-curvature="0"
     style="font-size:medium;font-style:normal;font-variant:normal;font-weight:normal;font-stretch:normal;text-indent:0;text-align:start;text-decoration:none;line-height:normal;letter-spacing:normal;word-spacing:normal;text-transform:none;direction:ltr;block-progression:tb;writing-mode:lr-tb;text-anchor:start;baseline-shift:baseline;color:#000000;fill:#3b4145;fill-opacity:1;stroke:none;stroke-width:31.84973526;marker:none;visibility:visible;display:inline;overflow:visible;enable-background:accumulate;font-family:Sans;-inkscape-font-specification:Sans"
     d="m 12.842203,0.80001983 0,23.99996017 C 19.441859,24.776783 24.8,19.404621 24.8,12.799996 24.8,6.1953716 19.441856,0.82322344 12.842203,0.80001983 z"
     id="path3825" />
  <path
     inkscape:connector-curvature="0"
     style="font-size:medium;font-style:normal;font-variant:normal;font-weight:normal;font-stretch:normal;text-indent:0;text-align:start;text-decoration:none;line-height:normal;letter-spacing:normal;word-spacing:normal;text-transform:none;direction:ltr;block-progression:tb;writing-mode:lr-tb;text-anchor:start;baseline-shift:baseline;color:#000000;fill:#525a61;fill-opacity:1;stroke:none;stroke-width:31.84973526;marker:none;visibility:visible;display:inline;overflow:visible;enable-background:accumulate;font-family:Sans;-inkscape-font-specification:Sans"
     d="M 12.799308,0.80001983 C 6.1799789,0.80001983 0.8,6.1810624 0.8,12.799996 c 0,6.618941 5.3799789,11.999984 11.999308,11.999984 0.0143,0 0.0286,4.5e-5 0.04289,0 l 0,-23.99996017 c -0.0143,-4.5e-5 -0.02859,0 -0.04289,0 z"
     id="path3832" />
  <path
     style="font-size:medium;font-style:normal;font-variant:normal;font-weight:normal;font-stretch:normal;text-indent:0;text-align:start;text-decoration:none;line-height:normal;letter-spacing:normal;word-spacing:normal;text-transform:none;direction:ltr;block-progression:tb;writing-mode:lr-tb;text-anchor:start;baseline-shift:baseline;color:#000000;fill:#08b500;fill-opacity:1;stroke:none;stroke-width:31.84973526;marker:none;visibility:visible;display:inline;overflow:visible;enable-background:accumulate;font-family:Sans;-inkscape-font-specification:Sans"
     d="m 12.799675,2.2173532 c 5.853586,0 10.583685,4.7298187 10.583685,10.5830548 0,5.853237 -4.730099,10.581669 -10.583685,10.581669 -5.8535824,0 -10.5836843,-4.728432 -10.5836843,-10.581669 0,-5.8532361 4.7301019,-10.5830548 10.5836843,-10.5830548 z"
     id="path3049"
     inkscape:connector-curvature="0" />
  <path
     d="m 20.040768,9.9892968 -8.335376,8.3346442 c -0.250068,0.250053 -0.578327,0.375908 -0.906586,0.375908 -0.328258,0 -0.656516,-0.125855 -0.906585,-0.375908 L 5.72465,14.156622 c -0.5015446,-0.501278 -0.5015446,-1.311786 0,-1.813065 0.5013114,-0.501513 1.3116273,-0.501513 1.8131719,0 l 3.2609841,3.260794 7.42879,-7.4281114 c 0.501309,-0.5015213 1.311624,-0.5015213 1.813172,0 0.50131,0.5012785 0.50131,1.3115443 0,1.8130572 z m 0,0"
     id="path6"
     inkscape:connector-curvature="0"
     style="fill:#d6d6d6;fill-opacity:1" />
  <path
     style="color:#000000;fill:#fafafa;fill-opacity:1;fill-rule:nonzero;stroke:#ff0000;stroke-width:0;stroke-linecap:butt;stroke-linejoin:miter;stroke-miterlimit:4;stroke-opacity:1;stroke-dasharray:none;stroke-dashoffset:0;marker:none;visibility:visible;display:inline;overflow:visible;enable-background:accumulate"
     d="m 6.6256091,11.956299 c -0.3279361,0 -0.6399697,0.147657 -0.890625,0.398414 -0.5015446,0.501279 -0.5015446,1.303301 0,1.80458 L 9.883421,18.33092 c 0.24388,0.243865 0.570538,0.368902 0.890625,0.374977 l 0,-3.117002 -3.2343744,-3.234182 C 7.2888994,12.103957 6.9535451,11.956299 6.6256091,11.956299 z"
     id="rect3060"
     inkscape:connector-curvature="0" />
</svg>
