<?xml version="1.0" encoding="UTF-8" standalone="no"?>
<!-- Created with Inkscape (http://www.inkscape.org/) -->

<svg
   version="1.1"
   id="svg2"
   width="521"
   height="512"
   viewBox="0 0 520.99999 511.99999"
   sodipodi:docname="ori.svg"
   inkscape:version="1.2.2 (1:1.2.2+202212051552+b0a8486541)"
   xmlns:inkscape="http://www.inkscape.org/namespaces/inkscape"
   xmlns:sodipodi="http://sodipodi.sourceforge.net/DTD/sodipodi-0.dtd"
   xmlns="http://www.w3.org/2000/svg"
   xmlns:svg="http://www.w3.org/2000/svg">
  <defs
     id="defs6" />
  <sodipodi:namedview
     id="namedview4"
     pagecolor="#ffffff"
     bordercolor="#000000"
     borderopacity="0.25"
     inkscape:showpageshadow="2"
     inkscape:pageopacity="0.0"
     inkscape:pagecheckerboard="0"
     inkscape:deskcolor="#d1d1d1"
     showgrid="false"
     inkscape:zoom="0.88148149"
     inkscape:cx="148.61344"
     inkscape:cy="266.02941"
     inkscape:window-width="1309"
     inkscape:window-height="704"
     inkscape:window-x="0"
     inkscape:window-y="0"
     inkscape:window-maximized="1"
     inkscape:current-layer="g8" />
  <g
     inkscape:groupmode="layer"
     inkscape:label="Image"
     id="g8"
     transform="translate(-148.80382,52.248125)">
    <path
       style="fill:#ffffff;fill-opacity:1;stroke-width:0.613308"
       d="M 409.30382,-52.248123 187.60159,75.75187 V 331.75186 L 409.30382,459.75187 631.00605,331.75186 V 75.75187 Z"
       id="path7019" />
    <path
       style="fill:#000000;fill-opacity:1;stroke-width:0.582164"
       d="M 409.30383,-39.248121 198.85991,82.251871 V 325.25187 L 409.30383,446.75188 619.74772,325.25187 V 82.251871 Z"
       id="path9969" />
    <path
       id="path1132"
       style="fill:#ff1744;fill-opacity:1;stroke-width:0.464705"
       d="m 536.58496,277.23795 -2.52262,1.45632 v 0.43056 l -165.08791,95.31394 40.32939,23.28416 56.80559,-32.79707 a 35.444603,35.444603 0 0 1 -1.41834,-9.34405 35.444603,35.444603 0 0 1 35.4446,-35.4446 35.444603,35.444603 0 0 1 25.23946,10.57158 l 11.20983,-6.47195 z" />
    <path
       id="path1134"
       style="fill:#00c853;fill-opacity:1;stroke-width:0.464705"
       d="M 409.30382,9.7807995 355.01155,41.126612 a 35.444603,35.444603 0 0 1 2.06586,11.879315 35.444603,35.444603 0 0 1 -35.44461,35.444604 35.444603,35.444603 0 0 1 -26.84518,-12.553018 l -12.7649,7.369378 V 130.26662 C 338.41362,97.1808 399.49919,61.836163 449.53444,33.00755 Z" />
    <path
       id="path1136"
       style="fill:#ffd600;fill-opacity:1;stroke-width:0.464705"
       d="m 282.02272,83.266891 -40.70255,23.499439 v 62.14709 c 18.84248,0.96079 33.62993,16.51349 33.63961,35.38045 -0.0702,18.82288 -14.841,34.30805 -33.63961,35.26647 v 14.25331 l 40.70255,23.4243 V 130.26662 Z"
       sodipodi:nodetypes="ccccccccc" />
    <path
       id="path1138"
       style="fill:#2196f3;fill-opacity:1;stroke-width:0.464705"
       d="M 449.53444,33.00755 409.05865,56.290159 577.28746,153.63351 V 106.76633 L 525.93061,77.11491 c -6.66259,7.180536 -15.99965,11.283729 -25.79494,11.335621 -19.57549,0 -35.4446,-15.86909 -35.4446,-35.444604 0.0464,-3.491639 0.60857,-6.957252 1.66823,-10.284541 z"
       sodipodi:nodetypes="ccccccccc" />
    <path
       id="path1140"
       style="fill:#aa00ff;fill-opacity:1;stroke-width:0.464705"
       d="m 536.58496,130.00656 v 194.23028 l 40.7025,-23.49944 v -61.55866 c -17.40407,-2.46231 -30.37451,-17.30779 -30.47877,-34.88487 0.10426,-17.57708 13.0747,-32.42257 30.47877,-34.88487 v -15.77549 z"
       sodipodi:nodetypes="cccccccc" />
    <path
       id="path1142"
       style="fill:#ff6d00;fill-opacity:1;stroke-width:0.464705"
       d="m 241.32017,253.81365 v 46.92375 l 54.1243,31.24874 c 6.66432,-7.47086 16.17726,-11.77496 26.18833,-11.84892 19.5755,0 35.44461,15.86911 35.44461,35.44461 -0.0657,3.70525 -0.71209,7.37727 -1.91557,10.88222 l 13.81259,7.97474 40.57456,-23.46955 z"
       sodipodi:nodetypes="ccccccccc" />
    <path
       id="path1144"
       style="fill:#ff1744;fill-opacity:1;stroke-width:0.327855"
       d="m 499.1022,255.5972 -1.77971,1.02745 v 0.30376 l -116.47152,67.24517 28.45285,16.42723 89.79838,-51.84533 z" />
    <path
       style="fill:#00c853;fill-opacity:1;stroke-width:0.327855"
       d="m 409.30382,66.9029 -89.79838,51.84534 v 33.15888 c 39.78449,-23.34248 82.88106,-48.27851 118.1816,-68.617462 z"
       id="path1146"
       sodipodi:nodetypes="ccccc" />
    <path
       id="path1148"
       style="fill:#ffd600;fill-opacity:1;stroke-width:0.327855"
       d="m 319.50544,118.74824 -28.71614,16.57914 v 103.74369 c 16.26622,9.39133 32.52933,18.76125 48.79338,28.1491 v -0.0316 L 319.50544,255.59718 V 151.90712 Z" />
    <path
       style="fill:#2196f3;fill-opacity:1;stroke-width:0.327855"
       d="m 437.68704,83.289658 c -35.30049,20.338922 -78.3972,45.275042 -118.1816,68.617462 l 89.79838,-51.84534 48.71238,28.12409 0.081,-0.0465 69.72113,40.25334 v -33.06537 z"
       id="path1150" />
    <path
       style="fill:#aa00ff;fill-opacity:1;stroke-width:0.327855"
       d="m 458.09721,128.13941 -0.081,0.0465 41.086,23.72125 v 103.69008 33.15828 l 28.71614,-16.57914 V 168.39275 Z"
       id="path1152" />
    <path
       style="fill:#ff6d00;fill-opacity:1;stroke-width:0.327855"
       d="m 290.7893,239.07107 v 33.10527 l 90.06162,51.99722 116.47157,-67.24515 v -0.30376 l -88.01867,50.81789 C 369.79774,284.69814 330.29845,261.88176 290.7893,239.07107 Z"
       id="path1154" />
    <circle
       style="fill:#ffd600;fill-opacity:1;stroke-width:0.724501"
       id="circle1158"
       cx="239.51514"
       cy="204.29387"
       r="25.935076" />
    <circle
       style="fill:#aa00ff;fill-opacity:1;stroke-width:0.724501"
       id="circle1162"
       cx="582.25348"
       cy="204.29387"
       r="25.935076" />
    <circle
       style="fill:#2196f3;fill-opacity:1;stroke-width:0.724501"
       id="circle1166"
       cx="500.13568"
       cy="53.005924"
       r="25.935076" />
    <circle
       style="fill:#ff1744;fill-opacity:1;stroke-width:0.724501"
       id="circle1170"
       cx="500.13568"
       cy="355.58182"
       r="25.935076" />
    <circle
       style="fill:#00c853;fill-opacity:1;stroke-width:0.724501"
       id="circle1174"
       cx="321.6329"
       cy="53.005924"
       r="25.935076" />
    <circle
       style="fill:#ff6d00;fill-opacity:1;stroke-width:0.724501"
       id="circle1178"
       cx="321.6329"
       cy="355.58182"
       r="25.935076" />
  </g>
</svg>
