<?xml version="1.0" encoding="UTF-8" standalone="no"?>
<svg
   xmlns:dc="http://purl.org/dc/elements/1.1/"
   xmlns:cc="http://creativecommons.org/ns#"
   xmlns:rdf="http://www.w3.org/1999/02/22-rdf-syntax-ns#"
   xmlns:svg="http://www.w3.org/2000/svg"
   xmlns="http://www.w3.org/2000/svg"
   xmlns:sodipodi="http://sodipodi.sourceforge.net/DTD/sodipodi-0.dtd"
   xmlns:inkscape="http://www.inkscape.org/namespaces/inkscape"
   id="regular"
   enable-background="new 0 0 24 24"
   height="32"
   viewBox="0 0 1.5 1.5"
   width="32"
   version="1.1"
   inkscape:version="0.48.4 r9939"
   sodipodi:docname="idea.svg">
  <metadata
     id="metadata31">
    <rdf:RDF>
      <cc:Work
         rdf:about="">
        <dc:format>image/svg+xml</dc:format>
        <dc:type
           rdf:resource="http://purl.org/dc/dcmitype/StillImage" />
      </cc:Work>
    </rdf:RDF>
  </metadata>
  <defs
     id="defs29" />
  <sodipodi:namedview
     pagecolor="#ffffff"
     bordercolor="#666666"
     borderopacity="1"
     objecttolerance="10"
     gridtolerance="10"
     guidetolerance="10"
     inkscape:pageopacity="0"
     inkscape:pageshadow="2"
     inkscape:window-width="1366"
     inkscape:window-height="744"
     id="namedview27"
     showgrid="false"
     inkscape:zoom="18.07786"
     inkscape:cx="19.778475"
     inkscape:cy="17.059267"
     inkscape:window-x="1360"
     inkscape:window-y="24"
     inkscape:window-maximized="1"
     inkscape:current-layer="regular" />
  <g
     id="g19"
     transform="matrix(0.046875,0,0,0.046875,-2.4104873,-22.688167)" />
  <g
     id="g21"
     transform="matrix(0.046875,0,0,0.046875,-2.4104873,-22.688167)" />
  <g
     id="g23"
     transform="matrix(0.046875,0,0,0.046875,-2.4104873,-22.688167)" />
  <g
     id="g25"
     transform="matrix(0.046875,0,0,0.046875,-2.4104873,-22.688167)" />
  <g
     id="g27"
     transform="matrix(0.046875,0,0,0.046875,-2.4104873,-22.688167)" />
  <g
     id="g29"
     transform="matrix(0.046875,0,0,0.046875,-2.4104873,-22.688167)" />
  <g
     id="g31"
     transform="matrix(0.046875,0,0,0.046875,-2.4104873,-22.688167)" />
  <g
     id="g33"
     transform="matrix(0.046875,0,0,0.046875,-2.4104873,-22.688167)" />
  <g
     id="g35"
     transform="matrix(0.046875,0,0,0.046875,-2.4104873,-22.688167)" />
  <g
     id="g37"
     transform="matrix(0.046875,0,0,0.046875,-2.4104873,-22.688167)" />
  <g
     id="g39"
     transform="matrix(0.046875,0,0,0.046875,-2.4104873,-22.688167)" />
  <g
     id="g41"
     transform="matrix(0.046875,0,0,0.046875,-2.4104873,-22.688167)" />
  <g
     id="g43"
     transform="matrix(0.046875,0,0,0.046875,-2.4104873,-22.688167)" />
  <g
     id="g45"
     transform="matrix(0.046875,0,0,0.046875,-2.4104873,-22.688167)" />
  <g
     id="g47"
     transform="matrix(0.046875,0,0,0.046875,-2.4104873,-22.688167)" />
  <path
     sodipodi:type="arc"
     style="color:#000000;fill:#ffc107;fill-opacity:1;fill-rule:nonzero;stroke:#0087ff;stroke-width:0;stroke-linecap:butt;stroke-linejoin:miter;stroke-miterlimit:4;stroke-opacity:1;stroke-dasharray:none;stroke-dashoffset:0;marker:none;visibility:visible;display:inline;overflow:visible;enable-background:accumulate"
     id="path3001"
     sodipodi:cx="-53.050846"
     sodipodi:cy="-5.9661016"
     sodipodi:rx="24.576271"
     sodipodi:ry="24.576271"
     d="m -28.474575,-5.9661016 a 24.576271,24.576271 0 1 1 -49.152542,0 24.576271,24.576271 0 1 1 49.152542,0 z"
     transform="matrix(0.03051724,0,0,0.03051724,2.3689655,0.93206895)" />
  <path
     inkscape:connector-curvature="0"
     style="font-size:medium;font-style:normal;font-variant:normal;font-weight:normal;font-stretch:normal;text-indent:0;text-align:start;text-decoration:none;line-height:normal;letter-spacing:normal;word-spacing:normal;text-transform:none;direction:ltr;block-progression:tb;writing-mode:lr-tb;text-anchor:start;baseline-shift:baseline;color:#000000;fill:#3b4145;fill-opacity:1;stroke:none;stroke-width:31.84973526;marker:none;visibility:visible;display:inline;overflow:visible;enable-background:accumulate;font-family:Sans;-inkscape-font-specification:Sans"
     d="m 0.75247283,0.04687616 0,1.40624764 C 1.1391714,1.4517646 1.453125,1.1369895 1.453125,0.74999977 c 0,-0.38698972 -0.3139538,-0.70176402 -0.70065217,-0.70312361 z"
     id="path3825" />
  <path
     inkscape:connector-curvature="0"
     style="font-size:medium;font-style:normal;font-variant:normal;font-weight:normal;font-stretch:normal;text-indent:0;text-align:start;text-decoration:none;line-height:normal;letter-spacing:normal;word-spacing:normal;text-transform:none;direction:ltr;block-progression:tb;writing-mode:lr-tb;text-anchor:start;baseline-shift:baseline;color:#000000;fill:#525a61;fill-opacity:1;stroke:none;stroke-width:31.84973526;marker:none;visibility:visible;display:inline;overflow:visible;enable-background:accumulate;font-family:Sans;-inkscape-font-specification:Sans"
     d="m 0.74995945,0.04687616 c -0.38785131,0 -0.70308445,0.31529547 -0.70308445,0.70312361 0,0.38782853 0.31523314,0.70312403 0.70308445,0.70312403 8.3789e-4,0 0.001676,2.7e-6 0.002513,0 l 0,-1.40624764 c -8.3789e-4,-2.63e-6 -0.001675,0 -0.002513,0 z"
     id="path3832" />
  <path
     style="font-size:medium;font-style:normal;font-variant:normal;font-weight:normal;font-stretch:normal;text-indent:0;text-align:start;text-decoration:none;line-height:normal;letter-spacing:normal;word-spacing:normal;text-transform:none;direction:ltr;block-progression:tb;writing-mode:lr-tb;text-anchor:start;baseline-shift:baseline;color:#000000;fill:#ffc107;fill-opacity:1;stroke:none;stroke-width:31.84973525999999922;marker:none;visibility:visible;display:inline;overflow:visible;enable-background:accumulate;font-family:Sans;-inkscape-font-specification:Sans"
     d="m 0.74998096,0.12992304 c 0.34298354,0 0.62013774,0.27713781 0.62013774,0.62010087 0,0.34296309 -0.2771542,0.62001969 -0.62013774,0.62001969 -0.34298335,0 -0.62013775,-0.2770566 -0.62013775,-0.62001969 0,-0.34296306 0.2771544,-0.62010087 0.62013775,-0.62010087 z"
     id="path3049"
     inkscape:connector-curvature="0" />
  <g
     id="g3809"
     transform="matrix(0.73772517,0,0,0.73772517,-0.85695539,-1.3553941)">
    <path
       style="fill:#ffc107"
       inkscape:connector-curvature="0"
       id="path3"
       d="m 2.6157575,2.8539002 c 0,0.135 -0.06125,0.26 -0.166875,0.34375 -0.043125,0.03375 -0.07125,0.07813 -0.08,0.125625 -0.00125,-6.25e-4 -0.00187,-6.25e-4 -0.00312,-6.25e-4 h -0.375 c -0.00125,0 -0.00313,0 -0.00438,6.25e-4 -0.00875,-0.04937 -0.034375,-0.0925 -0.07125,-0.12 -0.13625,-0.103125 -0.2,-0.271875 -0.165,-0.441875 0.034375,-0.165625 0.16875,-0.300625 0.334375,-0.335 0.131875,-0.02813 0.266875,0.0044 0.369375,0.0875 0.103125,0.08375 0.161875,0.2075 0.161875,0.34 z" />
    <path
       style="fill:#607d8b"
       inkscape:connector-curvature="0"
       id="path5"
       d="m 2.3688825,3.3232752 c -0.00187,0.010625 -0.00312,0.02125 -0.00312,0.0325 v 0.13875 c 0,0.06 -0.049375,0.109375 -0.109375,0.109375 h -0.15625 c -0.0525,0 -0.109375,-0.04 -0.109375,-0.1275 v -0.110625 c 0,-0.01438 -0.00125,-0.02875 -0.00438,-0.0425 0.00125,-6.25e-4 0.00313,-6.25e-4 0.00438,-6.25e-4 h 0.375 c 0.00125,0 0.00188,0 0.00312,6.25e-4 z" />
    <path
       inkscape:connector-curvature="0"
       id="path7"
       d="m 2.3188825,3.4164002 h -0.28125 c -0.025875,0 -0.046875,-0.021 -0.046875,-0.04687 0,-0.02587 0.021,-0.04687 0.046875,-0.04687 h 0.28125 c 0.025875,0 0.046875,0.021 0.046875,0.04687 0,0.02587 -0.021,0.04687 -0.046875,0.04687 z" />
    <path
       inkscape:connector-curvature="0"
       id="path9"
       d="m 2.1782575,2.3199622 c -0.025875,0 -0.046875,-0.021 -0.046875,-0.04687 v -0.122317 c 0,-0.025875 0.021,-0.046875 0.046875,-0.046875 0.025875,0 0.046875,0.021 0.046875,0.04687 v 0.122312 c 0,0.02587 -0.021,0.04687 -0.046875,0.04687 z" />
    <path
       inkscape:connector-curvature="0"
       id="path11"
       d="m 2.588945,2.4900872 c -0.012,0 -0.024,-0.0046 -0.033125,-0.01375 -0.018312,-0.01831 -0.018312,-0.048 0,-0.06631 l 0.0865,-0.0865 c 0.018312,-0.01831 0.048,-0.01831 0.066312,0 0.018312,0.01831 0.018312,0.048 0,0.06631 l -0.0865,0.0865 c -0.00919,0.0091 -0.021187,0.01375 -0.033187,0.01375 z" />
    <path
       inkscape:connector-curvature="0"
       id="path13"
       d="M 2.8813825,2.9007752 H 2.75907 c -0.025875,0 -0.046875,-0.021 -0.046875,-0.04687 0,-0.02587 0.021,-0.04687 0.046875,-0.04687 h 0.1223125 c 0.025875,-1e-5 0.046875,0.02099 0.046875,0.046865 0,0.02587 -0.021,0.04687 -0.046875,0.04687 z" />
    <path
       inkscape:connector-curvature="0"
       id="path15"
       d="m 2.675445,3.3979622 c -0.012,0 -0.024,-0.0046 -0.033125,-0.01375 l -0.0865,-0.0865 c -0.018312,-0.01831 -0.018312,-0.048 0,-0.06631 0.018312,-0.01831 0.048,-0.01831 0.066312,0 l 0.0865,0.0865 c 0.018312,0.01831 0.018312,0.048 0,0.06631 -0.00919,0.0092 -0.021188,0.01375 -0.033188,0.01375 z" />
    <path
       inkscape:connector-curvature="0"
       id="path17"
       d="m 1.68107,3.3979622 c -0.012,0 -0.024,-0.0046 -0.033125,-0.01375 -0.018312,-0.01831 -0.018312,-0.048 0,-0.06631 l 0.0865,-0.0865 c 0.018312,-0.01831 0.048,-0.01831 0.066312,0 0.018312,0.01831 0.018312,0.048 0,0.06631 l -0.0865,0.0865 c -0.00919,0.0092 -0.021187,0.01375 -0.033187,0.01375 z" />
    <path
       inkscape:connector-curvature="0"
       id="path19"
       d="M 1.597445,2.9007752 H 1.4751325 c -0.025875,0 -0.046875,-0.021 -0.046875,-0.046875 0,-0.02587 0.021,-0.04687 0.046875,-0.04687 H 1.597445 c 0.025875,0 0.046875,0.021 0.046875,0.04687 0,0.02587 -0.021,0.04687 -0.046875,0.04687 z" />
    <path
       inkscape:connector-curvature="0"
       id="path21"
       d="m 1.76757,2.4900872 c -0.012,0 -0.024,-0.0046 -0.033125,-0.01375 l -0.0865,-0.0865 c -0.018312,-0.01831 -0.018312,-0.048 0,-0.06631 0.018312,-0.01831 0.048,-0.01831 0.066312,0 l 0.0865,0.0865 c 0.018312,0.01831 0.018312,0.048 0,0.06631 -0.00925,0.0091 -0.021187,0.01375 -0.033187,0.01375 z" />
    <path
       inkscape:connector-curvature="0"
       id="path23"
       d="m 2.4126325,2.8851502 c -0.025875,0 -0.046875,-0.021 -0.046875,-0.04687 0,-0.09481 -0.077062,-0.171875 -0.171875,-0.171875 -0.025875,0 -0.046875,-0.021 -0.046875,-0.04687 0,-0.02587 0.021,-0.04687 0.046875,-0.04687 0.1464375,0 0.265625,0.119187 0.265625,0.265625 0,0.02587 -0.021,0.04687 -0.046875,0.04687 z" />
    <path
       inkscape:connector-curvature="0"
       id="path25"
       d="m 2.2563825,3.6039002 h -0.15625 c -0.052687,0 -0.109375,-0.04 -0.109375,-0.12775 v -0.11025 c 0,-0.06631 -0.02825,-0.127188 -0.075562,-0.162813 -0.1365625,-0.102812 -0.19975,-0.271937 -0.1649375,-0.441375 0.034062,-0.166 0.168375,-0.300812 0.3341875,-0.3355 0.131875,-0.02775 0.26675,0.0044 0.369625,0.088 0.10275,0.0835 0.1616875,0.207313 0.1616875,0.339688 0,0.134875 -0.060938,0.260062 -0.1671875,0.343625 -0.052625,0.041375 -0.082813,0.099 -0.082813,0.158062 v 0.138938 c 0,0.060312 -0.049062,0.109375 -0.109375,0.109375 z m -0.079,-1.093625 c -0.0245,0 -0.049188,0.0026 -0.073875,0.0077 -0.12975,0.02713 -0.2348125,0.132625 -0.2615,0.262563 -0.027438,0.133563 0.022188,0.266813 0.1295,0.347625 0.070688,0.05325 0.1129375,0.142125 0.1129375,0.23775 v 0.11025 c 0,0.0057 7.5e-4,0.034 0.015625,0.034 h 0.15625 c 0.00862,0 0.015625,-0.007 0.015625,-0.01563 v -0.138938 c 0,-0.08806 0.04325,-0.1725 0.118625,-0.231812 0.083563,-0.065633 0.1314375,-0.164008 0.1314375,-0.269883 0,-0.104 -0.046375,-0.201313 -0.127125,-0.266938 -0.06175,-0.05012 -0.1383125,-0.07669 -0.2175,-0.07669 z" />
  </g>
</svg>
