<?xml version="1.0" encoding="UTF-8" standalone="no"?>
<!-- Generator: Adobe Illustrator 18.0.0, SVG Export Plug-In . SVG Version: 6.00 Build 0)  -->

<svg
   xmlns:dc="http://purl.org/dc/elements/1.1/"
   xmlns:cc="http://creativecommons.org/ns#"
   xmlns:rdf="http://www.w3.org/1999/02/22-rdf-syntax-ns#"
   xmlns:svg="http://www.w3.org/2000/svg"
   xmlns="http://www.w3.org/2000/svg"
   xmlns:xlink="http://www.w3.org/1999/xlink"
   xmlns:sodipodi="http://sodipodi.sourceforge.net/DTD/sodipodi-0.dtd"
   xmlns:inkscape="http://www.inkscape.org/namespaces/inkscape"
   version="1.1"
   x="0px"
   y="0px"
   width="128"
   height="128"
   viewBox="0 0 128 128"
   xml:space="preserve"
   id="svg2"
   inkscape:version="0.48.4 r9939"
   sodipodi:docname="internet-explorer.svg"><metadata
     id="metadata54"><rdf:RDF><cc:Work
         rdf:about=""><dc:format>image/svg+xml</dc:format><dc:type
           rdf:resource="http://purl.org/dc/dcmitype/StillImage" /></cc:Work></rdf:RDF></metadata><defs
     id="defs52"><radialGradient
       inkscape:collect="always"
       xlink:href="#SVGID_1_"
       id="radialGradient3056"
       gradientUnits="userSpaceOnUse"
       gradientTransform="matrix(0.6237,0.7816,-0.7859,0.6271,144.9713,-69.0107)"
       cx="143.5159"
       cy="115.7612"
       fx="138.9545"
       fy="113.5903"
       r="104.4259" /><linearGradient
       inkscape:collect="always"
       xlink:href="#SVGID_2_"
       id="linearGradient3058"
       gradientUnits="userSpaceOnUse"
       x1="237.8817"
       y1="64.2799"
       x2="234.5647"
       y2="79.694397" /><linearGradient
       inkscape:collect="always"
       xlink:href="#SVGID_3_"
       id="linearGradient3060"
       gradientUnits="userSpaceOnUse"
       x1="66.431"
       y1="235.12711"
       x2="87.932899"
       y2="226.49921" /></defs><sodipodi:namedview
     pagecolor="#ffffff"
     bordercolor="#666666"
     borderopacity="1"
     objecttolerance="10"
     gridtolerance="10"
     guidetolerance="10"
     inkscape:pageopacity="0"
     inkscape:pageshadow="2"
     inkscape:window-width="1319"
     inkscape:window-height="744"
     id="namedview50"
     showgrid="false"
     inkscape:zoom="0.921875"
     inkscape:cx="-1.0847458"
     inkscape:cy="128"
     inkscape:window-x="41"
     inkscape:window-y="24"
     inkscape:window-maximized="1"
     inkscape:current-layer="svg2" /><style
     type="text/css"
     id="style4">
	.st0{fill:url(#SVGID_1_);stroke:#2064A9;stroke-miterlimit:10;}
	.st1{fill:url(#SVGID_2_);fill-opacity:0.95;}
	.st2{fill:#FFB700;fill-opacity:0.95;}
	.st3{filter:url(#AI_GaussianBlur_4);}
	.st4{fill:#FFFFA6;}
	.st5{fill:url(#SVGID_3_);fill-opacity:0.95;}
</style><filter
     id="AI_GaussianBlur_4"
     color-interpolation-filters="sRGB"><feGaussianBlur
       stdDeviation="4"
       id="feGaussianBlur7" /></filter><g
     id="g3031"
     transform="matrix(0.54771074,0,0,0.54771074,-7.5584082,66.621741)"><g
       transform="translate(0,-128)"
       id="the_e"><radialGradient
         gradientUnits="userSpaceOnUse"
         gradientTransform="matrix(0.6237,0.7816,-0.7859,0.6271,144.9713,-69.0107)"
         fy="113.5903"
         fx="138.9545"
         r="104.4259"
         cy="115.7612"
         cx="143.5159"
         id="SVGID_1_"><stop
           id="stop11"
           style="stop-color:#89EAFE"
           offset="0" /><stop
           id="stop13"
           style="stop-color:#86E8FD"
           offset="0.2624" /><stop
           id="stop15"
           style="stop-color:#7DDFF9"
           offset="0.4357" /><stop
           id="stop17"
           style="stop-color:#6ED2F2"
           offset="0.5832" /><stop
           id="stop19"
           style="stop-color:#59BEE9"
           offset="0.7163" /><stop
           id="stop21"
           style="stop-color:#3EA5DD"
           offset="0.8397" /><stop
           id="stop23"
           style="stop-color:#1C87CF"
           offset="0.9544" /><stop
           id="stop25"
           style="stop-color:#0D79C8"
           offset="1" /></radialGradient><path
         style="fill:url(#radialGradient3056);stroke:#2064a9;stroke-miterlimit:10"
         inkscape:connector-curvature="0"
         id="path27"
         d="m 100.5,117.8 c 2.6,-23.3 21,-42 43.9,-42 25.7,0 43.4,18 45,42 h -88.9 z m 84.2,49.2 c -6.5,13.4 -20,22.1 -40.4,22.6 -28.3,0.7 -43.2,-23.4 -43.9,-44.1 h 84 4.9 56.9 c 0.5,-4.2 0.8,-8.4 0.8,-12.8 C 247,76.3 201.3,30.6 144.9,30.6 88.5,30.6 42.8,76.3 42.8,132.7 c 0,56.4 45.7,102.1 102.1,102.1 44.4,0 82.1,-28.3 96.2,-67.8 h -56.4 z"
         class="st0" /></g><g
       transform="translate(0,-128)"
       id="halo"><linearGradient
         y2="79.694397"
         x2="234.5647"
         y1="64.2799"
         x1="237.8817"
         gradientUnits="userSpaceOnUse"
         id="SVGID_2_"><stop
           id="stop31"
           style="stop-color:#FFB700"
           offset="0" /><stop
           id="stop33"
           style="stop-color:#FFB700;stop-opacity:0"
           offset="0.8599" /></linearGradient><path
         style="fill:url(#linearGradient3058);fill-opacity:0.95"
         inkscape:connector-curvature="0"
         id="path35"
         d="m 235.5,63.7 c -0.8,3.1 -1.6,5.8 -2.1,8.1 -0.4,1.8 -0.6,7.1 -0.6,7.1 0,0 3.8,-2.4 4.7,-3.6 0.8,-1.1 1.9,-5.8 2.9,-10.5 l -4.9,-1.1 z"
         class="st1" /><path
         style="fill:#ffb700;fill-opacity:0.95"
         inkscape:connector-curvature="0"
         id="path37"
         d="m 240.6,65 c 0.7,-3.1 1.3,-6.3 1.6,-8.5 1.3,-8.1 4,-51.3 -53.7,-39 C 111.1,33.9 68.3,94.6 61.5,103 48.6,119 10.2,180.8 20.3,218.8 26.2,241 49.8,240.9 67,237.4 l -1.2,-6.1 C 36.6,236 32.2,213.8 36.2,196.5 41.1,174.9 57,139.4 108.4,89.4 154,45 202.4,20.2 227.6,32.5 241,39 238.4,53.1 235.5,63.9 l 5.1,1.1 z"
         class="st2" /><g
         style="filter:url(#AI_GaussianBlur_4)"
         id="g39"
         class="st3"><path
           style="fill:#ffffa6"
           inkscape:connector-curvature="0"
           id="path41"
           d="M 188.5,17.5 C 111.1,33.9 68.3,94.6 61.5,103 c -8.1,10 -26.1,38 -36,66.8 -0.6,2.3 -1.3,4.6 -2.1,6.6 0,0 0,0 0,0 C 55.2,94.9 134.2,37.2 191.6,16.9 c -1,0.2 -2.1,0.4 -3.1,0.6 z"
           class="st4" /></g><linearGradient
         y2="226.49921"
         x2="87.932899"
         y1="235.12711"
         x1="66.431"
         gradientUnits="userSpaceOnUse"
         id="SVGID_3_"><stop
           id="stop44"
           style="stop-color:#FFB700"
           offset="0" /><stop
           id="stop46"
           style="stop-color:#FFB700;stop-opacity:0"
           offset="1" /></linearGradient><path
         style="fill:url(#linearGradient3060);fill-opacity:0.95"
         inkscape:connector-curvature="0"
         id="path48"
         d="m 67,237.3 c 9.4,-2 17.1,-5 18.8,-5.9 1.6,-0.9 7.1,-3.9 12.1,-6.9 L 93.5,222 c -2.4,0.9 -5.2,2 -8.3,3.3 -7.3,3 -13.9,4.9 -19.4,5.7 l 1.2,6.3 z"
         class="st5" /></g></g></svg>