<?xml version="1.0" encoding="UTF-8" standalone="no"?>
<!-- Generator: Adobe Illustrator 19.0.0, SVG Export Plug-In . SVG Version: 6.00 Build 0)  -->

<svg
   xmlns:dc="http://purl.org/dc/elements/1.1/"
   xmlns:cc="http://creativecommons.org/ns#"
   xmlns:rdf="http://www.w3.org/1999/02/22-rdf-syntax-ns#"
   xmlns:svg="http://www.w3.org/2000/svg"
   xmlns="http://www.w3.org/2000/svg"
   xmlns:sodipodi="http://sodipodi.sourceforge.net/DTD/sodipodi-0.dtd"
   xmlns:inkscape="http://www.inkscape.org/namespaces/inkscape"
   version="1.1"
   id="Capa_1"
   x="0px"
   y="0px"
   viewBox="0 0 32 32.001903"
   xml:space="preserve"
   inkscape:version="0.48.4 r9939"
   width="100%"
   height="100%"
   sodipodi:docname="info.svg"><metadata
     id="metadata53"><rdf:RDF><cc:Work
         rdf:about=""><dc:format>image/svg+xml</dc:format><dc:type
           rdf:resource="http://purl.org/dc/dcmitype/StillImage" /></cc:Work></rdf:RDF></metadata><defs
     id="defs51" /><sodipodi:namedview
     pagecolor="#ffffff"
     bordercolor="#666666"
     borderopacity="1"
     objecttolerance="10"
     gridtolerance="10"
     guidetolerance="10"
     inkscape:pageopacity="0"
     inkscape:pageshadow="2"
     inkscape:window-width="1360"
     inkscape:window-height="744"
     id="namedview49"
     showgrid="false"
     inkscape:zoom="9.1503109"
     inkscape:cx="34.920228"
     inkscape:cy="20.039959"
     inkscape:window-x="0"
     inkscape:window-y="24"
     inkscape:window-maximized="1"
     inkscape:current-layer="Capa_1"
     fit-margin-top="0"
     fit-margin-left="0"
     fit-margin-right="0"
     fit-margin-bottom="0" /><g
     id="g19"
     transform="matrix(1,0,0,1.0051198,0,-482.6228)" /><g
     id="g21"
     transform="matrix(1,0,0,1.0051198,0,-482.6228)" /><g
     id="g23"
     transform="matrix(1,0,0,1.0051198,0,-482.6228)" /><g
     id="g25"
     transform="matrix(1,0,0,1.0051198,0,-482.6228)" /><g
     id="g27"
     transform="matrix(1,0,0,1.0051198,0,-482.6228)" /><g
     id="g29"
     transform="matrix(1,0,0,1.0051198,0,-482.6228)" /><g
     id="g31"
     transform="matrix(1,0,0,1.0051198,0,-482.6228)" /><g
     id="g33"
     transform="matrix(1,0,0,1.0051198,0,-482.6228)" /><g
     id="g35"
     transform="matrix(1,0,0,1.0051198,0,-482.6228)" /><g
     id="g37"
     transform="matrix(1,0,0,1.0051198,0,-482.6228)" /><g
     id="g39"
     transform="matrix(1,0,0,1.0051198,0,-482.6228)" /><g
     id="g41"
     transform="matrix(1,0,0,1.0051198,0,-482.6228)" /><g
     id="g43"
     transform="matrix(1,0,0,1.0051198,0,-482.6228)" /><g
     id="g45"
     transform="matrix(1,0,0,1.0051198,0,-482.6228)" /><g
     id="g47"
     transform="matrix(1,0,0,1.0051198,0,-482.6228)" /><path
     sodipodi:type="arc"
     style="color:#000000;fill:#33aeff;fill-opacity:1;fill-rule:nonzero;stroke:#0087ff;stroke-width:0;stroke-linecap:butt;stroke-linejoin:miter;stroke-miterlimit:4;stroke-opacity:1;stroke-dasharray:none;stroke-dashoffset:0;marker:none;visibility:visible;display:inline;overflow:visible;enable-background:accumulate"
     id="path3001"
     sodipodi:cx="-10.524179"
     sodipodi:cy="2.3320434"
     sodipodi:rx="11.713351"
     sodipodi:ry="11.713351"
     d="m 1.1891718,2.3320434 a 11.713351,11.713351 0 1 1 -23.4267028,0 11.713351,11.713351 0 1 1 23.4267028,0 z"
     transform="matrix(1.3659626,0,0,1.3659626,30.375636,12.815467)" /><path
     inkscape:connector-curvature="0"
     style="font-size:medium;font-style:normal;font-variant:normal;font-weight:normal;font-stretch:normal;text-indent:0;text-align:start;text-decoration:none;line-height:normal;letter-spacing:normal;word-spacing:normal;text-transform:none;direction:ltr;block-progression:tb;writing-mode:lr-tb;text-anchor:start;baseline-shift:baseline;color:#000000;fill:#3b4145;fill-opacity:1;stroke:none;stroke-width:31.84973526;marker:none;visibility:visible;display:inline;overflow:visible;enable-background:accumulate;font-family:Sans;-inkscape-font-specification:Sans"
     d="m 16.052753,1.0009764 0,29.9999496 C 24.302323,30.971923 31,24.256726 31,16.000948 31,7.745166 24.302321,1.0299809 16.052753,1.0009764 z"
     id="path3825" /><path
     inkscape:connector-curvature="0"
     style="font-size:medium;font-style:normal;font-variant:normal;font-weight:normal;font-stretch:normal;text-indent:0;text-align:start;text-decoration:none;line-height:normal;letter-spacing:normal;word-spacing:normal;text-transform:none;direction:ltr;block-progression:tb;writing-mode:lr-tb;text-anchor:start;baseline-shift:baseline;color:#000000;fill:#525a61;fill-opacity:1;stroke:none;stroke-width:31.84973526;marker:none;visibility:visible;display:inline;overflow:visible;enable-background:accumulate;font-family:Sans;-inkscape-font-specification:Sans"
     d="m 15.999136,1.0009764 c -8.2741626,0 -14.99913605,6.7263031 -14.99913605,14.9999716 0,8.273676 6.72497345,14.999978 14.99913605,14.999978 0.01788,0 0.03574,5.7e-5 0.05362,0 l 0,-29.9999496 c -0.01788,-5.64e-5 -0.03573,0 -0.05362,0 z"
     id="path3832" /><path
     style="font-size:medium;font-style:normal;font-variant:normal;font-weight:normal;font-stretch:normal;text-indent:0;text-align:start;text-decoration:none;line-height:normal;letter-spacing:normal;word-spacing:normal;text-transform:none;direction:ltr;block-progression:tb;writing-mode:lr-tb;text-anchor:start;baseline-shift:baseline;color:#000000;fill:#33aeff;fill-opacity:1;stroke:none;stroke-width:31.84973525999999922;marker:none;visibility:visible;display:inline;overflow:visible;enable-background:accumulate;font-family:Sans;-inkscape-font-specification:Sans"
     d="m 15.999595,2.7726429 c 7.316981,0 13.229607,5.9122734 13.229607,13.2288201 0,7.316546 -5.912626,13.227085 -13.229607,13.227085 -7.31698,0 -13.2296063,-5.910539 -13.2296063,-13.227085 0,-7.3165467 5.9126263,-13.2288201 13.2296063,-13.2288201 z"
     id="path3049"
     inkscape:connector-curvature="0" /><path
     inkscape:connector-curvature="0"
     id="path3880"
     style="font-size:362.43469238px;font-style:normal;font-variant:normal;font-weight:bold;font-stretch:normal;text-align:center;line-height:125%;letter-spacing:0px;word-spacing:0px;text-anchor:middle;fill:#d6d6d6;fill-opacity:1;stroke:none;font-family:DejaVu Serif;-inkscape-font-specification:DejaVu Serif Bold"
     d="m 17.829784,22.812848 1.57614,0 0,1.254611 -6.812657,0 0,-1.254611 1.565771,0 0,-8.512726 -1.565771,0 0,-1.254608 5.236517,0 0,9.767334 M 13.81685,9.9245261 c -3e-6,-0.559897 0.193559,-1.0299504 0.580683,-1.4101496 0.387119,-0.3870801 0.860651,-0.5806343 1.420599,-0.5806437 0.546114,9.4e-6 1.009277,0.1935636 1.389492,0.5806437 0.387116,0.3801992 0.580677,0.8502526 0.580682,1.4101496 -5e-6,0.5460989 -0.193566,1.0126849 -0.580682,1.3997749 -0.380215,0.380197 -0.843378,0.570292 -1.389492,0.570283 -0.559948,9e-6 -1.03348,-0.190086 -1.420599,-0.570283 -0.387124,-0.380172 -0.580686,-0.846765 -0.580683,-1.3997749" /><path
     inkscape:connector-curvature="0"
     style="font-size:362.43469238px;font-style:normal;font-variant:normal;font-weight:bold;font-stretch:normal;text-align:center;line-height:125%;letter-spacing:0px;word-spacing:0px;text-anchor:middle;fill:#ffffff;fill-opacity:1;stroke:none;font-family:DejaVu Serif;-inkscape-font-specification:DejaVu Serif Bold"
     d="m 15.81803,7.934389 c -0.559948,9.3e-6 -1.03378,0.1933197 -1.420899,0.5804094 -0.387123,0.3801992 -0.580445,0.8499338 -0.580443,1.4098236 -2e-6,0.553016 0.19332,1.018673 0.580443,1.398844 0.387119,0.3802 0.860951,0.571269 1.420899,0.571261 0.102396,0 0.201897,-0.0065 0.29846,-0.02017 l 0,-3.920055 C 16.01993,7.940907 15.920426,7.934346 15.81803,7.934346 z m -3.224488,5.111998 0,1.254194 1.565552,0 0,8.512072 -1.565552,0 0,1.254196 3.522948,0 0,-11.020462 -3.522948,0 z"
     id="path3888" /></svg>