<?xml version="1.0" encoding="UTF-8" standalone="no"?>
<!-- Generator: Adobe Illustrator 19.0.0, SVG Export Plug-In . SVG Version: 6.00 Build 0)  -->

<svg
   xmlns:dc="http://purl.org/dc/elements/1.1/"
   xmlns:cc="http://creativecommons.org/ns#"
   xmlns:rdf="http://www.w3.org/1999/02/22-rdf-syntax-ns#"
   xmlns:svg="http://www.w3.org/2000/svg"
   xmlns="http://www.w3.org/2000/svg"
   xmlns:sodipodi="http://sodipodi.sourceforge.net/DTD/sodipodi-0.dtd"
   xmlns:inkscape="http://www.inkscape.org/namespaces/inkscape"
   version="1.1"
   id="Layer_1"
   x="0px"
   y="0px"
   viewBox="0 0 128 128"
   xml:space="preserve"
   inkscape:version="0.48.4 r9939"
   width="100%"
   height="100%"
   sodipodi:docname="ie.svg"><metadata
     id="metadata47"><rdf:RDF><cc:Work
         rdf:about=""><dc:format>image/svg+xml</dc:format><dc:type
           rdf:resource="http://purl.org/dc/dcmitype/StillImage" /></cc:Work></rdf:RDF></metadata><defs
     id="defs45" /><sodipodi:namedview
     pagecolor="#ffffff"
     bordercolor="#666666"
     borderopacity="1"
     objecttolerance="10"
     gridtolerance="10"
     guidetolerance="10"
     inkscape:pageopacity="0"
     inkscape:pageshadow="2"
     inkscape:window-width="1319"
     inkscape:window-height="744"
     id="namedview43"
     showgrid="false"
     inkscape:zoom="1.8880653"
     inkscape:cx="109.76659"
     inkscape:cy="98.136387"
     inkscape:window-x="41"
     inkscape:window-y="24"
     inkscape:window-maximized="1"
     inkscape:current-layer="Layer_1" /><path
     style="fill:#01a1c5;fill-opacity:1"
     d="m 106.1994,0.97060827 c -0.94967,-1e-5 -1.94388,0.0303 -2.97162,0.0874 -8.221863,0.68522 -17.355043,2.96462 -27.403988,7.53232 -1.598759,-0.22832 -2.968053,-0.22247 -4.338236,-0.22247 -13.702853,0 -23.980056,5.0251697 -36.541301,12.5618197 -11.64745,7.30807 -21.243821,15.986 -28.0952469,32.88637 11.4191279,-10.04894 25.5788149,-19.87071 36.5413009,-25.12363 -1.141862,1.14212 -3.19504,3.42546 -7.762742,7.99316 C 23.294898,48.561608 20.095281,54.270468 15.7559,61.578798 10.046336,70.942518 6.1672217,79.167878 3.6549218,86.932848 1.1426221,94.469488 -2.7777778e-6,101.54409 -2.7777778e-6,107.71029 c 0,6.16621 1.3737432777778,10.73493 4.7990749777778,13.47555 8.2216088,8.22186 21.6912468,7.76878 40.4186988,-1.36662 8.221864,4.11105 17.356951,6.16569 26.720677,6.16569 12.561245,0 23.983679,-3.88686 34.260952,-11.19519 10.27726,-7.30832 17.3579,-17.353322 21.46871,-29.001022 l -31.972651,0 c -2.512046,4.1108 -5.487345,7.76122 -9.59815,10.27352 -4.110805,2.5123 -8.671579,3.65492 -13.467603,3.65492 -5.024346,0 -9.364743,-1.14262 -13.475548,-3.65492 -4.110805,-2.5123 -7.314426,-5.70982 -9.59815,-9.82063 -2.019779,-3.81519 -3.807689,-7.40699 -3.869453,-11.64808 l 52.519678,0 29.692297,0 c 0.22832,-2.05541 0,-4.33672 0,-6.84901 0,-10.50559 -0.22947,-20.77936 -5.48239,-29.91477 5.48124,-14.84497 5.02396,-25.81247 -1.82746,-32.6638997 -2.99761,-2.79761 -7.74159,-4.19516003 -14.38928,-4.19522003 z m -1.24744,8.14413003 c 5.70921,-0.5223223 10.75968,1.5965027 11.69571,6.9047057 0.44344,2.514711 0.28551,5.136324 -2.45511,12.672974 -8.22187,-9.82037 -10.05333,-10.7355 -21.015821,-16.21674 5.780962,-2.31233 9.178271,-3.3247597 11.775221,-3.3609397 z M 71.485556,35.541428 c 6.394783,0 12.104029,1.82842 16.900053,6.39612 4.796024,4.33938 7.07568,10.05238 7.532323,16.44716 l -50.008903,0 c 0.456643,-6.39478 3.880449,-11.87946 8.676473,-16.44716 4.796024,-4.5677 10.276949,-6.39612 16.900054,-6.39612 z M 15.7559,86.932848 c 4.796024,13.01789 8.909372,18.951502 20.785398,26.259832 -13.702853,6.16621 -19.870713,7.54097 -25.123634,2.2883 C 5.479778,109.54284 7.7623579,102.46303 15.7559,86.932848 z"
     id="path3"
     inkscape:connector-curvature="0"
     sodipodi:nodetypes="sccsccccccsccssccsssccccsccscscccscccsscccc" /><g
     id="g13"
     transform="translate(0,-375.41701)" /><g
     id="g15"
     transform="translate(0,-375.41701)" /><g
     id="g17"
     transform="translate(0,-375.41701)" /><g
     id="g19"
     transform="translate(0,-375.41701)" /><g
     id="g21"
     transform="translate(0,-375.41701)" /><g
     id="g23"
     transform="translate(0,-375.41701)" /><g
     id="g25"
     transform="translate(0,-375.41701)" /><g
     id="g27"
     transform="translate(0,-375.41701)" /><g
     id="g29"
     transform="translate(0,-375.41701)" /><g
     id="g31"
     transform="translate(0,-375.41701)" /><g
     id="g33"
     transform="translate(0,-375.41701)" /><g
     id="g35"
     transform="translate(0,-375.41701)" /><g
     id="g37"
     transform="translate(0,-375.41701)" /><g
     id="g39"
     transform="translate(0,-375.41701)" /><g
     id="g41"
     transform="translate(0,-375.41701)" /></svg>