<?xml version="1.0" encoding="UTF-8" standalone="no"?>
<!-- Generator: Adobe Illustrator 19.0.0, SVG Export Plug-In . SVG Version: 6.00 Build 0)  -->

<svg
   xmlns:dc="http://purl.org/dc/elements/1.1/"
   xmlns:cc="http://creativecommons.org/ns#"
   xmlns:rdf="http://www.w3.org/1999/02/22-rdf-syntax-ns#"
   xmlns:svg="http://www.w3.org/2000/svg"
   xmlns="http://www.w3.org/2000/svg"
   xmlns:sodipodi="http://sodipodi.sourceforge.net/DTD/sodipodi-0.dtd"
   xmlns:inkscape="http://www.inkscape.org/namespaces/inkscape"
   version="1.1"
   id="Capa_1"
   x="0px"
   y="0px"
   viewBox="0 0 32 32"
   xml:space="preserve"
   inkscape:version="0.48.4 r9939"
   width="100%"
   height="100%"
   sodipodi:docname="note.svg"><metadata
     id="metadata53"><rdf:RDF><cc:Work
         rdf:about=""><dc:format>image/svg+xml</dc:format><dc:type
           rdf:resource="http://purl.org/dc/dcmitype/StillImage" /><dc:title /></cc:Work></rdf:RDF></metadata><defs
     id="defs51" /><sodipodi:namedview
     pagecolor="#ffffff"
     bordercolor="#666666"
     borderopacity="1"
     objecttolerance="10"
     gridtolerance="10"
     guidetolerance="10"
     inkscape:pageopacity="0"
     inkscape:pageshadow="2"
     inkscape:window-width="1319"
     inkscape:window-height="744"
     id="namedview49"
     showgrid="false"
     fit-margin-top="0"
     fit-margin-left="0"
     fit-margin-right="0"
     fit-margin-bottom="0"
     inkscape:zoom="10.089196"
     inkscape:cx="14.576719"
     inkscape:cy="8.931804"
     inkscape:window-x="41"
     inkscape:window-y="24"
     inkscape:window-maximized="1"
     inkscape:current-layer="Capa_1" /><rect
     ry="3.3001432"
     rx="3.3001432"
     y="4.6494117"
     x="1.2110351"
     height="26.995169"
     width="25.345098"
     id="rect3767"
     style="color:#000000;fill:#c5ff7e;fill-opacity:1;fill-rule:nonzero;stroke:#0087ff;stroke-width:0;stroke-linecap:butt;stroke-linejoin:miter;stroke-miterlimit:4;stroke-opacity:1;stroke-dasharray:none;stroke-dashoffset:0;marker:none;visibility:visible;display:inline;overflow:visible;enable-background:accumulate" /><rect
     style="color:#000000;fill:#3b4145;fill-opacity:1;fill-rule:nonzero;stroke:#0087ff;stroke-width:0;stroke-linecap:butt;stroke-linejoin:miter;stroke-miterlimit:4;stroke-opacity:1;stroke-dasharray:none;stroke-dashoffset:0;marker:none;visibility:visible;display:inline;overflow:visible;enable-background:accumulate"
     id="rect2995"
     width="23.485888"
     height="25.014915"
     x="2.1406407"
     y="5.6395383"
     rx="3.0580583"
     ry="3.0580583" /><path
     style="color:#000000;fill:#525a61;fill-opacity:1;fill-rule:nonzero;stroke:#0087ff;stroke-width:0;stroke-linecap:butt;stroke-linejoin:miter;stroke-miterlimit:4;stroke-opacity:1;stroke-dasharray:none;stroke-dashoffset:0;marker:none;visibility:visible;display:inline;overflow:visible;enable-background:accumulate"
     d="M 5.1875 5.625 C 3.4933357 5.625 2.15625 6.9933357 2.15625 8.6875 L 2.15625 27.59375 C 2.15625 29.287914 3.4933357 30.65625 5.1875 30.65625 L 14.28125 30.65625 L 14.28125 5.625 L 5.1875 5.625 z "
     id="rect3855" /><rect
     style="color:#000000;fill:#c5ff7e;fill-opacity:1;fill-rule:nonzero;stroke:#0087ff;stroke-width:0;stroke-linecap:butt;stroke-linejoin:miter;stroke-miterlimit:4;stroke-opacity:1;stroke-dasharray:none;stroke-dashoffset:0;marker:none;visibility:visible;display:inline;overflow:visible;enable-background:accumulate"
     id="rect2997"
     width="20"
     height="21.596001"
     x="3.8835845"
     y="7.3489957"
     rx="1.1693156"
     ry="1.1693156" /><path
     id="path3800"
     style="color:#000000;fill:#000000;fill-opacity:1;fill-rule:nonzero;stroke:#0087ff;stroke-width:0;stroke-linecap:butt;stroke-linejoin:miter;stroke-miterlimit:4;stroke-opacity:1;stroke-dashoffset:0;marker:none;visibility:visible;display:inline;overflow:visible;enable-background:accumulate"
     d="m 6.6804595,23.16262 0,1.968751 14.4062495,0 0,-1.968751 -14.4062495,0 z m 0,-4 0,1.968751 14.4062495,0 0,-1.968751 -14.4062495,0 z m 0,-4 0,1.968751 14.4062495,0 0,-1.968751 -14.4062495,0 z m 0,-3.999999 0,1.96875 14.4062495,0 0,-1.96875 -14.4062495,0 z"
     inkscape:connector-curvature="0" /><path
     id="path3777"
     style="color:#000000;fill:#c5ff7e;fill-opacity:1;fill-rule:nonzero;stroke:#0087ff;stroke-width:0;stroke-linecap:butt;stroke-linejoin:miter;stroke-miterlimit:4;stroke-opacity:1;stroke-dashoffset:0;marker:none;visibility:visible;display:inline;overflow:visible;enable-background:accumulate"
     d="M 27.10604,0.66510189 12.191148,15.52437 10.749585,21.250411 16.390974,19.730363 31.305865,4.8710962 z m 4.224142,-0.0720556 C 30.390734,-0.36566542 28.823948,-1.0753178 27.909897,-0.16275022 l -0.869232,0.86852605 4.199828,4.20599437 0.869231,-0.8685261 c 0.87824,-0.877527 0.159911,-2.4914903 -0.779542,-3.45019781 z"
     inkscape:connector-curvature="0"
     sodipodi:nodetypes="ccccccscccss" /><path
     inkscape:connector-curvature="0"
     id="path3775"
     d="M 30.648351,1.2836173 C 29.9324,0.55298566 28.892512,0.16631656 28.195916,0.86178186 L 27.864191,1.192969 30.756559,4.0900361 31.088284,3.758849 C 31.757859,3.0903606 31.364306,2.0142458 30.648351,1.2836173 z M 27.112281,1.9436599 13.334626,15.698967 12.270701,19.719774 16.226993,18.596034 30.004648,4.840727 27.112281,1.9436599 z"
     style="color:#000000;fill:#000000;fill-opacity:1;fill-rule:nonzero;stroke:#0087ff;stroke-width:0;stroke-linecap:butt;stroke-linejoin:miter;stroke-miterlimit:4;stroke-opacity:1;stroke-dashoffset:0;marker:none;visibility:visible;display:inline;overflow:visible;enable-background:accumulate" /></svg>