<?xml version="1.0" encoding="UTF-8" standalone="no"?>
<!-- Created with Inkscape (http://www.inkscape.org/) -->

<svg
   xmlns:dc="http://purl.org/dc/elements/1.1/"
   xmlns:cc="http://creativecommons.org/ns#"
   xmlns:rdf="http://www.w3.org/1999/02/22-rdf-syntax-ns#"
   xmlns:svg="http://www.w3.org/2000/svg"
   xmlns="http://www.w3.org/2000/svg"
   xmlns:sodipodi="http://sodipodi.sourceforge.net/DTD/sodipodi-0.dtd"
   xmlns:inkscape="http://www.inkscape.org/namespaces/inkscape"
   id="svg2"
   version="1.1"
   inkscape:version="0.48.4 r9939"
   width="128"
   height="128"
   xml:space="preserve"
   sodipodi:docname="opera.svg"><metadata
     id="metadata8"><rdf:RDF><cc:Work
         rdf:about=""><dc:format>image/svg+xml</dc:format><dc:type
           rdf:resource="http://purl.org/dc/dcmitype/StillImage" /><dc:title></dc:title></cc:Work></rdf:RDF></metadata><defs
     id="defs6"><clipPath
       clipPathUnits="userSpaceOnUse"
       id="clipPath18"><path
         d="M 1224.75,797.012 C 1022.29,1035.12 892.539,1387.29 883.984,1782.23 l 0,85.54 c 8.555,394.94 139.726,747.11 340.766,985.22 262.34,339.33 647.3,491.89 1082.16,491.89 268.05,0 520.41,-18.53 734.28,-161.11 -320.8,289.43 -744.26,464.8 -1209.06,466.23 l -7.13,0 C 816.973,3650 0,2833.03 0,1825 0,846.91 769.922,47.0508 1738.03,1.42969 1766.54,0 1796.48,0 1825,0 2292.66,0 2718.96,175.371 3041.19,464.801 2827.32,322.23 2589.22,316.52 2321.17,316.52 1887.73,315.102 1485.66,456.25 1224.75,797.012 z"
         id="path20"
         inkscape:connector-curvature="0" /></clipPath><linearGradient
       x1="0"
       y1="0"
       x2="1"
       y2="0"
       gradientUnits="userSpaceOnUse"
       gradientTransform="matrix(0,-353.738,-294.736,0,152.06,359.049)"
       spreadMethod="pad"
       id="linearGradient22"><stop
         style="stop-opacity:1;stop-color:#ed1f33"
         offset="0"
         id="stop24" /><stop
         style="stop-opacity:1;stop-color:#ed1e2f"
         offset="0.4381"
         id="stop26" /><stop
         style="stop-opacity:1;stop-color:#ed1e2f"
         offset="0.4381"
         id="stop28" /><stop
         style="stop-opacity:1;stop-color:#ec1a2b"
         offset="0.5939"
         id="stop30" /><stop
         style="stop-opacity:1;stop-color:#d81e25"
         offset="0.7581"
         id="stop32" /><stop
         style="stop-opacity:1;stop-color:#b71d24"
         offset="0.9272"
         id="stop34" /><stop
         style="stop-opacity:1;stop-color:#a51c21"
         offset="1"
         id="stop36" /></linearGradient><clipPath
       clipPathUnits="userSpaceOnUse"
       id="clipPath44"><path
         d="m 1224.75,2852.99 c 166.81,198.18 383.53,316.52 620.21,316.52 531.82,0 962.4,-601.68 962.4,-1345.94 0,-744.25 -430.58,-1345.929 -962.4,-1345.929 -236.68,0 -451.97,119.757 -620.21,316.519 262.34,-339.34 651.58,-556.051 1085.02,-556.051 266.62,0 517.55,81.262 731.42,223.84 C 3414.75,798.441 3650,1284.63 3650,1825 c 0,540.37 -235.25,1026.56 -608.81,1360.2 -213.87,142.57 -463.38,223.84 -731.42,223.84 -434.87,0 -824.11,-215.29 -1085.02,-556.05 z"
         id="path46"
         inkscape:connector-curvature="0" /></clipPath><linearGradient
       x1="0"
       y1="0"
       x2="1"
       y2="0"
       gradientUnits="userSpaceOnUse"
       gradientTransform="matrix(0,-312.864,-239.29,0,243.737,338.199)"
       spreadMethod="pad"
       id="linearGradient48"><stop
         style="stop-opacity:1;stop-color:#9a1a1f"
         offset="0"
         id="stop50" /><stop
         style="stop-opacity:1;stop-color:#ef3547"
         offset="0.7"
         id="stop52" /><stop
         style="stop-opacity:1;stop-color:#ef3547"
         offset="1"
         id="stop54" /></linearGradient></defs><sodipodi:namedview
     pagecolor="#ffffff"
     bordercolor="#666666"
     borderopacity="1"
     objecttolerance="10"
     gridtolerance="10"
     guidetolerance="10"
     inkscape:pageopacity="0"
     inkscape:pageshadow="2"
     inkscape:window-width="1319"
     inkscape:window-height="744"
     id="namedview4"
     showgrid="false"
     inkscape:zoom="2.8330677"
     inkscape:cx="68.630826"
     inkscape:cy="58.964513"
     inkscape:window-x="41"
     inkscape:window-y="24"
     inkscape:window-maximized="1"
     inkscape:current-layer="g10" /><g
     id="g10"
     inkscape:groupmode="layer"
     inkscape:label="ink_ext_XXXXXX"
     transform="matrix(1.25,0,0,-1.25,0,128)"><g
       id="g12"
       transform="scale(0.02805479,0.02805479)"><g
         id="g14"><g
           id="g16"
           clip-path="url(#clipPath18)"><path
             d="M 1224.75,797.012 C 1022.29,1035.12 892.539,1387.29 883.984,1782.23 l 0,85.54 c 8.555,394.94 139.726,747.11 340.766,985.22 262.34,339.33 647.3,491.89 1082.16,491.89 268.05,0 520.41,-18.53 734.28,-161.11 -320.8,289.43 -744.26,464.8 -1209.06,466.23 l -7.13,0 C 816.973,3650 0,2833.03 0,1825 0,846.91 769.922,47.0508 1738.03,1.42969 1766.54,0 1796.48,0 1825,0 2292.66,0 2718.96,175.371 3041.19,464.801 2827.32,322.23 2589.22,316.52 2321.17,316.52 1887.73,315.102 1485.66,456.25 1224.75,797.012"
             style="fill:url(#linearGradient22);fill-opacity:1;fill-rule:nonzero;stroke:none"
             id="path38"
             inkscape:connector-curvature="0" /></g></g><g
         id="g40"><g
           id="g42"
           clip-path="url(#clipPath44)"><path
             d="m 1224.75,2852.99 c 166.81,198.18 383.53,316.52 620.21,316.52 531.82,0 962.4,-601.68 962.4,-1345.94 0,-744.25 -430.58,-1345.929 -962.4,-1345.929 -236.68,0 -451.97,119.757 -620.21,316.519 262.34,-339.34 651.58,-556.051 1085.02,-556.051 266.62,0 517.55,81.262 731.42,223.84 C 3414.75,798.441 3650,1284.63 3650,1825 c 0,540.37 -235.25,1026.56 -608.81,1360.2 -213.87,142.57 -463.38,223.84 -731.42,223.84 -434.87,0 -824.11,-215.29 -1085.02,-556.05"
             style="fill:url(#linearGradient48);fill-opacity:1;fill-rule:nonzero;stroke:none"
             id="path56"
             inkscape:connector-curvature="0" /></g></g></g></g></svg>