<?xml version="1.0" encoding="UTF-8" standalone="no"?>
<!-- Created with Inkscape (http://www.inkscape.org/) -->

<svg
   xmlns:dc="http://purl.org/dc/elements/1.1/"
   xmlns:cc="http://creativecommons.org/ns#"
   xmlns:rdf="http://www.w3.org/1999/02/22-rdf-syntax-ns#"
   xmlns:svg="http://www.w3.org/2000/svg"
   xmlns="http://www.w3.org/2000/svg"
   xmlns:xlink="http://www.w3.org/1999/xlink"
   xmlns:sodipodi="http://sodipodi.sourceforge.net/DTD/sodipodi-0.dtd"
   xmlns:inkscape="http://www.inkscape.org/namespaces/inkscape"
   width="128"
   height="128"
   viewBox="0 0 36.124445 36.124444"
   version="1.1"
   id="svg8"
   inkscape:version="0.48.4 r9939"
   sodipodi:docname="safari.svg">
  <title
     id="title2819">Safari browser logo</title>
  <defs
     id="defs2">
    <linearGradient
       inkscape:collect="always"
       id="linearGradient2135">
      <stop
         style="stop-color:#06c2e7;stop-opacity:1"
         offset="0"
         id="stop2131" />
      <stop
         id="stop2143"
         offset="0.25000015"
         style="stop-color:#0db8ec;stop-opacity:1" />
      <stop
         id="stop2139"
         offset="0.5000003"
         style="stop-color:#12aef1;stop-opacity:1" />
      <stop
         style="stop-color:#1f86f9;stop-opacity:1"
         offset="0.75000012"
         id="stop2141" />
      <stop
         style="stop-color:#107ddd;stop-opacity:1"
         offset="1"
         id="stop2133" />
    </linearGradient>
    <filter
       inkscape:collect="always"
       id="filter2222"
       x="-0.020909378"
       width="1.0418189"
       y="-0.0223378"
       height="1.0446756"
       color-interpolation-filters="sRGB">
      <feGaussianBlur
         inkscape:collect="always"
         stdDeviation="0.95767362"
         id="feGaussianBlur2224" />
    </filter>
    <radialGradient
       inkscape:collect="always"
       xlink:href="#linearGradient2135"
       id="radialGradient3015"
       gradientUnits="userSpaceOnUse"
       gradientTransform="matrix(0.21960973,0,0,0.21960969,248.02246,192.81608)"
       cx="413.06128"
       cy="136.81819"
       fx="413.06128"
       fy="136.81819"
       r="82.125351" />
    <radialGradient
       inkscape:collect="always"
       xlink:href="#linearGradient2135"
       id="radialGradient3818"
       gradientUnits="userSpaceOnUse"
       gradientTransform="matrix(0.21960973,0,0,0.21960969,248.02246,192.81608)"
       cx="413.06128"
       cy="136.81819"
       fx="413.06128"
       fy="136.81819"
       r="82.125351" />
  </defs>
  <sodipodi:namedview
     id="base"
     pagecolor="#ffffff"
     bordercolor="#666666"
     borderopacity="1.0"
     inkscape:pageopacity="0.0"
     inkscape:pageshadow="2"
     inkscape:zoom="2.0168919"
     inkscape:cx="91.071189"
     inkscape:cy="103"
     inkscape:document-units="px"
     inkscape:current-layer="layer1"
     showgrid="false"
     inkscape:window-width="1319"
     inkscape:window-height="744"
     inkscape:window-x="41"
     inkscape:window-y="24"
     inkscape:window-maximized="1"
     inkscape:snap-object-midpoints="false"
     showguides="true"
     inkscape:guide-bbox="true"
     inkscape:snap-intersection-paths="false"
     inkscape:snap-center="false"
     inkscape:object-paths="false"
     inkscape:object-nodes="false"
     fit-margin-left="0.01"
     fit-margin-top="0.01"
     fit-margin-right="0.01"
     fit-margin-bottom="0.01" />
  <metadata
     id="metadata5">
    <rdf:RDF>
      <cc:Work
         rdf:about="">
        <dc:format>image/svg+xml</dc:format>
        <dc:type
           rdf:resource="http://purl.org/dc/dcmitype/StillImage" />
        <dc:title>Safari browser logo</dc:title>
        <dc:date>03/04/2018</dc:date>
        <dc:creator>
          <cc:Agent>
            <dc:title>Apple, Inc.</dc:title>
          </cc:Agent>
        </dc:creator>
        <dc:publisher>
          <cc:Agent>
            <dc:title>CMetalCore</dc:title>
          </cc:Agent>
        </dc:publisher>
        <dc:source>https://fthmb.tqn.com/gnIDz9kkyZVRsWbJJOlHIYf_42g=/768x0/filters:no_upscale()/Safari-Yosemite-56a01c725f9b58eba4af0427.jpg</dc:source>
      </cc:Work>
    </rdf:RDF>
  </metadata>
  <g
     inkscape:label="Capa 1"
     inkscape:groupmode="layer"
     id="layer1"
     transform="translate(-318.88562,-210.27436)">
    <g
       id="g3808"
       transform="translate(-1.7112325,3.050402)">
      <path
         inkscape:connector-curvature="0"
         id="path826"
         d="m 356.69452,225.28618 a 18.035448,18.035448 0 0 1 -18.03545,18.03545 18.035448,18.035448 0 0 1 -18.03544,-18.03545 18.035448,18.035448 0 0 1 18.03544,-18.03545 18.035448,18.035448 0 0 1 18.03545,18.03545 z"
         style="fill:#b7b7b7;fill-opacity:1;stroke:#cdcdcd;stroke-width:0.05355177;stroke-linecap:round;stroke-linejoin:round;stroke-miterlimit:4;stroke-opacity:1;stroke-dasharray:none;stroke-dashoffset:0" />
      <path
         inkscape:connector-curvature="0"
         id="circle828"
         d="m 355.28128,225.28618 a 16.622205,16.622205 0 0 1 -16.62221,16.62221 16.622205,16.622205 0 0 1 -16.6222,-16.62221 16.622205,16.622205 0 0 1 16.6222,-16.6222 16.622205,16.622205 0 0 1 16.62221,16.6222 z"
         style="fill:url(#radialGradient3818);fill-opacity:1;stroke:none" />
      <path
         inkscape:connector-curvature="0"
         id="rect830"
         d="m 338.65907,209.53081 c -0.13426,0 -0.24234,0.10808 -0.24234,0.24235 v 2.79536 c 0,0.13426 0.10808,0.24234 0.24234,0.24234 0.13427,0 0.24235,-0.10808 0.24235,-0.24234 v -2.79536 c 0,-0.13427 -0.10808,-0.24235 -0.24235,-0.24235 z m -1.58542,0.10021 c -0.0161,-0.002 -0.0326,-0.002 -0.0493,2e-4 -0.13354,0.0139 -0.22983,0.13265 -0.21588,0.26619 l 0.12216,1.16946 c 0.0139,0.13353 0.13266,0.22982 0.26619,0.21588 0.13354,-0.0139 0.22983,-0.13265 0.21588,-0.26619 l -0.12206,-1.16945 c -0.0122,-0.11685 -0.10465,-0.20518 -0.21703,-0.21609 z m 3.18194,0.001 c -0.11239,0.0108 -0.20484,0.0992 -0.21714,0.21598 l -0.123,1.16936 c -0.014,0.13352 0.0822,0.25235 0.21578,0.2664 0.13352,0.014 0.25224,-0.0821 0.26629,-0.21568 l 0.123,-1.16946 c 0.014,-0.13352 -0.0822,-0.25225 -0.21578,-0.26629 -0.0167,-0.002 -0.0331,-0.002 -0.0492,-3e-4 z m -4.81056,0.23502 c -0.0161,1.3e-4 -0.0325,0.002 -0.0489,0.005 -0.13135,0.0278 -0.21472,0.15596 -0.18691,0.28732 l 0.57893,2.7347 c 0.0278,0.13135 0.15596,0.21471 0.28731,0.18691 0.13135,-0.0278 0.21472,-0.15587 0.18691,-0.28722 l -0.57892,-2.7348 c -0.0244,-0.11494 -0.12547,-0.19312 -0.23837,-0.19224 z m 6.43907,0.002 c -0.1129,-0.001 -0.21406,0.0771 -0.23847,0.19203 l -0.58091,2.73438 c -0.0279,0.13133 0.0554,0.25952 0.1867,0.28742 0.13133,0.0279 0.25952,-0.0554 0.28742,-0.1867 l 0.58091,-2.73438 c 0.0279,-0.13133 -0.0554,-0.25953 -0.1867,-0.28742 -0.0164,-0.003 -0.0328,-0.005 -0.0489,-0.005 z m -7.99333,0.43594 c -0.0314,-0.003 -0.0638,5.8e-4 -0.0957,0.0112 -0.12769,0.0415 -0.19712,0.17762 -0.15563,0.30531 l 0.36336,1.11831 c 0.0415,0.1277 0.17772,0.19713 0.30541,0.15564 0.1277,-0.0415 0.19702,-0.17772 0.15553,-0.30541 l -0.36335,-1.11832 c -0.0311,-0.0958 -0.11549,-0.15872 -0.20961,-0.16672 z m 9.5388,5.8e-4 c -0.0941,0.008 -0.17847,0.071 -0.2096,0.16672 l -0.36357,1.11821 c -0.0415,0.12768 0.0279,0.2639 0.15553,0.30541 0.12769,0.0415 0.26391,-0.0279 0.30542,-0.15553 l 0.36356,-1.11831 c 0.0415,-0.12769 -0.0279,-0.26391 -0.15553,-0.30541 -0.0319,-0.0104 -0.0644,-0.0138 -0.0958,-0.0111 z m -11.0758,0.56187 c -0.0315,5.8e-4 -0.0634,0.007 -0.094,0.0211 -0.12262,0.0545 -0.17753,0.19716 -0.123,0.31985 l 1.13536,2.55438 c 0.0545,0.12268 0.19716,0.17753 0.31985,0.123 0.12262,-0.0545 0.17764,-0.19716 0.1231,-0.31985 l -1.13547,-2.55438 c -0.0409,-0.092 -0.13137,-0.14595 -0.22581,-0.14412 z m 12.63017,0.009 c -0.0944,-0.002 -0.185,0.0519 -0.22603,0.14382 l -1.13882,2.55281 c -0.0547,0.12261 -2e-5,0.26535 0.12259,0.32005 0.12262,0.0547 0.26535,3e-5 0.32006,-0.12258 l 1.13881,-2.55281 c 0.0547,-0.12262 3e-5,-0.26536 -0.12258,-0.32006 -0.0306,-0.0136 -0.0625,-0.0206 -0.094,-0.0212 z m -14.05683,0.74627 c -0.0465,-0.003 -0.0945,0.007 -0.13805,0.0321 -0.11628,0.0671 -0.15583,0.21477 -0.0887,0.33104 l 0.58792,1.01832 c 0.0671,0.11628 0.21476,0.15583 0.33103,0.0887 0.11628,-0.0671 0.15583,-0.21476 0.0887,-0.33103 l -0.58792,-1.01832 c -0.042,-0.0727 -0.11542,-0.11539 -0.19298,-0.12081 z m 15.46392,0 c -0.0775,0.005 -0.15091,0.0481 -0.19287,0.12081 l -0.58803,1.01832 c -0.0671,0.11628 -0.0275,0.26391 0.0888,0.33104 0.11627,0.0671 0.2639,0.0276 0.33103,-0.0887 l 0.58792,-1.01832 c 0.0671,-0.11627 0.0276,-0.2639 -0.0887,-0.33104 -0.0436,-0.0252 -0.0916,-0.0353 -0.13816,-0.0321 z m -16.84925,0.86405 c -0.0466,0.002 -0.0933,0.0167 -0.13409,0.0462 -0.10867,0.0788 -0.1327,0.22979 -0.0538,0.33847 l 1.64138,2.26266 c 0.0788,0.10868 0.22989,0.13271 0.33857,0.0539 0.10867,-0.0788 0.1327,-0.22979 0.0538,-0.33846 l -1.64148,-2.26267 c -0.0493,-0.0679 -0.12669,-0.10275 -0.20438,-0.1001 z m 18.25195,0.0123 c -0.0777,-0.003 -0.15511,0.0319 -0.20448,0.0998 l -1.64452,2.26047 c -0.079,0.10857 -0.0551,0.25959 0.0534,0.33857 0.10858,0.079 0.25959,0.0552 0.33858,-0.0533 l 1.64441,-2.26047 c 0.079,-0.10858 0.0551,-0.25959 -0.0534,-0.33857 -0.0407,-0.0296 -0.0874,-0.0448 -0.13398,-0.0465 z m -19.49024,1.02616 c -0.0618,-0.003 -0.12498,0.0172 -0.17487,0.0621 -0.0998,0.0898 -0.10781,0.24244 -0.018,0.34223 l 0.78675,0.87398 c 0.0898,0.0998 0.24245,0.10782 0.34223,0.018 0.0998,-0.0898 0.10782,-0.24255 0.018,-0.34234 l -0.78665,-0.87388 c -0.0449,-0.0499 -0.10559,-0.0769 -0.16746,-0.0801 z m 20.71294,0.002 c -0.0619,0.003 -0.12254,0.0302 -0.16746,0.0801 l -0.78675,0.87378 c -0.0899,0.0998 -0.0819,0.25249 0.0179,0.34233 0.0998,0.0898 0.25239,0.0818 0.34223,-0.018 l 0.78685,-0.87377 c 0.0899,-0.0998 0.0818,-0.2525 -0.018,-0.34233 -0.0499,-0.0449 -0.11291,-0.0654 -0.17478,-0.0621 z m -21.89975,1.13828 c -0.0619,0.003 -0.12244,0.0302 -0.16735,0.0801 -0.0898,0.0998 -0.0818,0.2524 0.018,0.34223 l 2.07754,1.87023 c 0.0998,0.0898 0.2524,0.0818 0.34222,-0.018 0.0898,-0.0998 0.0819,-0.2524 -0.0179,-0.34223 l -2.07764,-1.87023 c -0.0499,-0.0449 -0.11302,-0.0654 -0.17489,-0.0621 z m 23.09232,0.008 c -0.0619,-0.003 -0.12506,0.0172 -0.17498,0.062 l -2.0788,1.86877 c -0.0998,0.0897 -0.10805,0.24237 -0.0183,0.34222 0.0898,0.0999 0.24249,0.10796 0.34234,0.0182 l 2.0789,-1.86877 c 0.0998,-0.0898 0.10795,-0.24238 0.0182,-0.34223 -0.0449,-0.0499 -0.10549,-0.0769 -0.16735,-0.0802 z m -24.07926,1.26088 c -0.0777,-0.003 -0.15516,0.0321 -0.20448,0.1 -0.0789,0.10862 -0.055,0.25955 0.0537,0.33846 l 0.95128,0.69116 c 0.10862,0.0789 0.25954,0.0551 0.33846,-0.0536 0.0789,-0.10862 0.055,-0.25965 -0.0536,-0.33857 l -0.95128,-0.69115 c -0.0407,-0.0296 -0.0875,-0.0447 -0.13408,-0.0463 z m 25.06526,0.009 c -0.0466,0.002 -0.0933,0.0166 -0.13408,0.0462 l -0.9517,0.69053 c -0.10867,0.0788 -0.13271,0.22989 -0.0539,0.33857 0.0788,0.10867 0.22979,0.1326 0.33847,0.0538 l 0.9518,-0.69053 c 0.10867,-0.0788 0.1326,-0.22979 0.0538,-0.33847 -0.0493,-0.0679 -0.12669,-0.10275 -0.20438,-0.10009 z m -25.98757,1.34486 c -0.0775,0.005 -0.15091,0.0481 -0.19287,0.1208 -0.0671,0.11628 -0.0276,0.26391 0.0887,0.33104 l 2.42081,1.39768 c 0.11627,0.0671 0.2639,0.0276 0.33104,-0.0887 0.0671,-0.11628 0.0276,-0.26391 -0.0887,-0.33104 l -2.42081,-1.39769 c -0.0436,-0.0252 -0.0916,-0.0353 -0.13817,-0.0321 z m 26.90328,0 c -0.0465,-0.003 -0.0946,0.007 -0.13816,0.0321 l -2.42082,1.39768 c -0.11627,0.0671 -0.15582,0.21477 -0.0887,0.33104 0.0671,0.11627 0.21477,0.15583 0.33104,0.0887 l 2.42092,-1.39767 c 0.11627,-0.0671 0.15582,-0.21477 0.0887,-0.33104 -0.042,-0.0727 -0.11543,-0.11539 -0.19298,-0.12081 z m -27.6006,1.44286 c -0.0944,-0.002 -0.18501,0.0518 -0.22603,0.14371 -0.0547,0.12262 -3e-5,0.26537 0.12259,0.32006 l 1.07396,0.47903 c 0.12262,0.0547 0.26536,4e-5 0.32005,-0.12257 0.0547,-0.12263 -6e-5,-0.26537 -0.12268,-0.32006 l -1.07386,-0.47904 c -0.0306,-0.0137 -0.0626,-0.0205 -0.094,-0.0211 z m 28.30264,0.01 c -0.0315,5.8e-4 -0.0635,0.007 -0.0941,0.0211 l -1.07417,0.4782 c -0.12266,0.0546 -0.17751,0.1973 -0.1229,0.31995 0.0546,0.12266 0.1974,0.17751 0.32006,0.1229 l 1.07417,-0.47831 c 0.12265,-0.0546 0.1774,-0.19729 0.12279,-0.31995 -0.0409,-0.092 -0.13137,-0.14579 -0.22581,-0.14392 z m -28.92413,1.4981 c -0.0941,0.008 -0.17852,0.0708 -0.20971,0.16651 -0.0416,0.12765 0.0276,0.26392 0.15532,0.30551 l 2.65782,0.86603 c 0.12765,0.0416 0.26392,-0.0277 0.30552,-0.15531 0.0416,-0.12766 -0.0276,-0.26393 -0.15532,-0.30552 l -2.65782,-0.86604 c -0.0319,-0.0104 -0.0644,-0.0138 -0.0958,-0.0112 z m 29.54447,0.0104 c -0.0314,-0.003 -0.0638,5.8e-4 -0.0957,0.0112 l -2.65844,0.86415 c -0.12769,0.0415 -0.19704,0.17773 -0.15553,0.30541 0.0415,0.12769 0.17772,0.19704 0.30541,0.15554 l 2.65834,-0.86416 c 0.12769,-0.0415 0.19714,-0.17772 0.15564,-0.30541 -0.0312,-0.0958 -0.11559,-0.15873 -0.20971,-0.16672 z m -29.93168,1.57267 c -0.1129,-0.001 -0.21415,0.0772 -0.23858,0.19213 -0.0279,0.13133 0.0554,0.25951 0.1867,0.28743 l 1.15022,0.24443 c 0.13133,0.0279 0.2595,-0.0554 0.28742,-0.18669 0.0279,-0.13134 -0.0554,-0.25952 -0.1867,-0.28743 l -1.15011,-0.24443 c -0.0164,-0.003 -0.0328,-0.005 -0.0489,-0.005 z m 30.31585,0.002 c -0.0161,1.4e-4 -0.0324,0.002 -0.0488,0.005 l -1.15022,0.24433 c -0.13133,0.0279 -0.21459,0.15598 -0.18669,0.28732 0.0279,0.13133 0.15608,0.21469 0.28742,0.1868 l 1.15011,-0.24433 c 0.13133,-0.0279 0.21469,-0.15609 0.1868,-0.28743 -0.0244,-0.11491 -0.12568,-0.19309 -0.23857,-0.19213 z m -30.60892,1.59003 c -0.11239,0.0108 -0.20489,0.0989 -0.21724,0.21578 -0.0141,0.13351 0.0819,0.25239 0.21546,0.2665 l 2.77988,0.29391 c 0.13352,0.0141 0.2524,-0.0821 0.26651,-0.21557 0.0141,-0.13352 -0.082,-0.2524 -0.21557,-0.2665 l -2.77988,-0.29391 c -0.0167,-0.002 -0.0331,-0.002 -0.0492,-2e-4 z m 30.90408,0.0209 c -0.0161,-0.002 -0.0326,-0.002 -0.0493,2e-4 l -2.7802,0.29015 c -0.13354,0.0139 -0.2298,0.13265 -0.21588,0.26618 0.0139,0.13354 0.13265,0.22983 0.26619,0.21589 l 2.7802,-0.29015 c 0.13353,-0.0139 0.2298,-0.13265 0.21588,-0.26619 -0.0122,-0.11684 -0.10456,-0.20516 -0.21693,-0.21609 z m -30.95115,1.60907 c -0.13426,0 -0.24234,0.10807 -0.24234,0.24234 0,0.13426 0.10808,0.24234 0.24234,0.24234 h 1.17584 c 0.13426,0 0.24245,-0.10808 0.24245,-0.24234 0,-0.13427 -0.10819,-0.24234 -0.24245,-0.24234 z m 29.81976,0 c -0.13426,0 -0.24234,0.10807 -0.24234,0.24234 0,0.13426 0.10808,0.24234 0.24234,0.24234 h 1.17584 c 0.13426,0 0.24235,-0.10808 0.24235,-0.24234 0,-0.13427 -0.10809,-0.24234 -0.24235,-0.24234 z m -26.94689,1.32111 c -0.0161,-0.002 -0.0325,-0.002 -0.0492,2.1e-4 l -2.7803,0.29014 c -0.13354,0.0139 -0.2298,0.13265 -0.21588,0.26619 0.0139,0.13353 0.13265,0.22982 0.26619,0.21588 l 2.7803,-0.29014 c 0.13354,-0.0139 0.2298,-0.13266 0.21588,-0.2662 -0.0122,-0.11684 -0.10466,-0.20516 -0.21703,-0.21608 z m 25.2484,0.0172 c -0.11239,0.0108 -0.20489,0.099 -0.21724,0.21578 -0.0141,0.13352 0.082,0.2524 0.21547,0.2665 l 2.77988,0.29391 c 0.13352,0.0141 0.25239,-0.0821 0.2665,-0.21556 0.0141,-0.13352 -0.0821,-0.2524 -0.21556,-0.26651 l -2.77978,-0.2939 c -0.0167,-0.002 -0.0332,-0.002 -0.0493,-2.1e-4 z m -26.63426,1.6372 c -0.0161,1.4e-4 -0.0325,0.002 -0.0489,0.005 l -1.15022,0.24433 c -0.13133,0.0279 -0.21458,0.15609 -0.18669,0.28742 0.0279,0.13134 0.15609,0.2146 0.28742,0.1867 l 1.15022,-0.24422 c 0.13132,-0.0279 0.21458,-0.1561 0.18669,-0.28742 -0.0244,-0.11492 -0.12557,-0.19309 -0.23847,-0.19214 z m 28.02127,0.002 c -0.1129,-0.001 -0.21404,0.0771 -0.23847,0.19202 -0.0279,0.13133 0.0553,0.25952 0.1866,0.28743 l 1.15021,0.24443 c 0.13133,0.0279 0.25951,-0.0553 0.28742,-0.18659 0.0279,-0.13133 -0.0554,-0.25962 -0.18669,-0.28753 l -1.15012,-0.24443 c -0.0164,-0.003 -0.0328,-0.005 -0.0489,-0.005 z m -26.08442,0.95451 c -0.0314,-0.003 -0.0638,5.8e-4 -0.0957,0.0112 l -2.65844,0.86415 c -0.12769,0.0415 -0.19704,0.17773 -0.15553,0.30541 0.0415,0.12769 0.17772,0.19703 0.30541,0.15553 l 2.65834,-0.86415 c 0.12769,-0.0415 0.19714,-0.17773 0.15564,-0.30541 -0.0312,-0.0958 -0.1156,-0.15873 -0.20972,-0.16672 z m 24.14527,0.009 c -0.0941,0.008 -0.17852,0.0708 -0.20971,0.16651 -0.0416,0.12766 0.0276,0.26393 0.15532,0.30552 l 2.65782,0.86604 c 0.12765,0.0416 0.26392,-0.0277 0.30551,-0.15532 0.0416,-0.12766 -0.0276,-0.26393 -0.15531,-0.30553 l -2.65782,-0.86603 c -0.0319,-0.0104 -0.0644,-0.0138 -0.0958,-0.0112 z m -25.15972,1.88415 c -0.0315,5.7e-4 -0.0634,0.007 -0.094,0.021 l -1.07427,0.4783 c -0.12266,0.0546 -0.1774,0.1973 -0.1228,0.31995 0.0546,0.12266 0.1973,0.1774 0.31995,0.1228 l 1.07429,-0.47821 c 0.12265,-0.0546 0.17739,-0.19729 0.12279,-0.31995 -0.0409,-0.092 -0.13149,-0.14579 -0.22593,-0.14392 z m 26.17291,0.009 c -0.0944,-0.002 -0.185,0.0518 -0.22602,0.14371 -0.0547,0.12262 -4e-5,0.26536 0.12258,0.32005 l 1.07386,0.47904 c 0.12261,0.0547 0.26537,3e-5 0.32006,-0.12258 0.0547,-0.12262 3e-5,-0.26537 -0.12259,-0.32006 l -1.07386,-0.47904 c -0.0306,-0.0137 -0.0625,-0.0205 -0.094,-0.0211 z m -24.08135,0.52516 c -0.0465,-0.003 -0.0946,0.007 -0.13817,0.0321 l -2.42081,1.39768 c -0.11628,0.0671 -0.15583,0.21476 -0.0887,0.33103 0.0671,0.11628 0.21477,0.15583 0.33104,0.0887 l 2.42081,-1.39758 c 0.11628,-0.0671 0.15582,-0.21487 0.0887,-0.33114 -0.042,-0.0727 -0.11533,-0.11538 -0.19287,-0.1208 z m 21.99377,0 c -0.0775,0.005 -0.15101,0.0481 -0.19297,0.12081 -0.0671,0.11627 -0.0276,0.264 0.0887,0.33114 l 2.42082,1.39757 c 0.11627,0.0671 0.26401,0.0276 0.33114,-0.0887 0.0671,-0.11628 0.0276,-0.26391 -0.0887,-0.33104 l -2.42092,-1.39768 c -0.0436,-0.0252 -0.0915,-0.0354 -0.13807,-0.0321 z m -22.59759,2.05107 c -0.0466,0.002 -0.0933,0.0168 -0.13409,0.0463 l -0.95169,0.69053 c -0.10867,0.0788 -0.13271,0.22979 -0.0539,0.33846 0.0788,0.10867 0.22979,0.13271 0.33846,0.0538 l 0.9518,-0.69052 c 0.10868,-0.0788 0.13271,-0.22979 0.0539,-0.33846 -0.0493,-0.0679 -0.12679,-0.10286 -0.20449,-0.1002 z m 23.19555,0.008 c -0.0777,-0.003 -0.15515,0.0321 -0.20447,0.1 -0.0789,0.10861 -0.055,0.25965 0.0537,0.33857 l 0.95127,0.69115 c 0.10862,0.0789 0.25955,0.055 0.33847,-0.0537 0.0789,-0.10862 0.055,-0.25955 -0.0535,-0.33846 l -0.95127,-0.69116 c -0.0407,-0.0296 -0.0875,-0.0448 -0.13409,-0.0465 z m -21.04009,0.0837 c -0.0619,-0.003 -0.12495,0.0172 -0.17488,0.062 l -2.07889,1.86876 c -0.0999,0.0898 -0.10796,0.24238 -0.0182,0.34224 0.0898,0.0998 0.24237,0.10795 0.34223,0.0182 l 2.07889,-1.86877 c 0.0999,-0.0898 0.10796,-0.24238 0.0182,-0.34223 -0.0448,-0.0499 -0.10549,-0.0769 -0.16735,-0.0802 z m 18.88463,0.007 c -0.0619,0.003 -0.12253,0.0302 -0.16745,0.0801 -0.0898,0.0998 -0.0818,0.2524 0.018,0.34223 l 2.07754,1.87023 c 0.0998,0.0898 0.2525,0.0818 0.34233,-0.018 0.0898,-0.0998 0.0818,-0.2524 -0.018,-0.34222 l -2.07765,-1.87024 c -0.0499,-0.0449 -0.11291,-0.0654 -0.17478,-0.0621 z m -16.91242,1.77537 c -0.0777,-0.003 -0.15522,0.0319 -0.20458,0.0998 l -1.64442,2.26047 c -0.079,0.10857 -0.0552,0.25959 0.0533,0.33857 0.10856,0.079 0.25958,0.0552 0.33856,-0.0534 l 1.64442,-2.26048 c 0.079,-0.10856 0.0552,-0.25958 -0.0533,-0.33857 -0.0407,-0.0296 -0.0874,-0.0448 -0.13398,-0.0464 z m 14.93247,0.0101 c -0.0466,0.002 -0.0933,0.0166 -0.13409,0.0462 -0.10867,0.0788 -0.1327,0.22978 -0.0539,0.33846 l 1.64138,2.26267 c 0.0788,0.10867 0.22979,0.13271 0.33847,0.0539 0.10868,-0.0788 0.1327,-0.22979 0.0539,-0.33846 l -1.64138,-2.26267 c -0.0493,-0.0679 -0.12669,-0.10275 -0.20438,-0.1001 z m -17.0553,0.34914 c -0.0619,0.003 -0.12253,0.0302 -0.16745,0.0801 l -0.78675,0.87378 c -0.0899,0.0998 -0.0819,0.25249 0.0179,0.34233 0.0998,0.0898 0.2524,0.0818 0.34223,-0.018 l 0.78685,-0.87377 c 0.0899,-0.0998 0.0818,-0.2525 -0.018,-0.34233 -0.0499,-0.0449 -0.11291,-0.0654 -0.17478,-0.0621 z m 19.19016,0.001 c -0.0619,-0.003 -0.12489,0.0172 -0.17477,0.0621 -0.0998,0.0898 -0.10782,0.24243 -0.018,0.34222 l 0.78665,0.87398 c 0.0898,0.0998 0.24244,0.10782 0.34224,0.018 0.0998,-0.0898 0.10781,-0.24254 0.018,-0.34234 l -0.78665,-0.87387 c -0.0449,-0.0499 -0.10559,-0.0769 -0.16745,-0.0801 z m -14.77098,0.96936 c -0.0944,-0.002 -0.1849,0.0518 -0.22592,0.14372 l -1.13892,2.5528 c -0.0547,0.12262 -3e-5,0.26536 0.12259,0.32006 0.12261,0.0547 0.26535,3e-5 0.32005,-0.12258 l 1.13892,-2.55281 c 0.0547,-0.12261 3e-5,-0.26536 -0.12259,-0.32006 -0.0306,-0.0137 -0.0627,-0.0205 -0.0941,-0.0211 z m 10.3379,0.007 c -0.0315,5.7e-4 -0.0635,0.007 -0.0941,0.021 -0.12262,0.0545 -0.17754,0.19716 -0.123,0.31985 l 1.13536,2.55438 c 0.0545,0.12262 0.19726,0.17754 0.31995,0.123 0.12262,-0.0545 0.17754,-0.19716 0.123,-0.31984 l -1.13536,-2.55438 c -0.0409,-0.092 -0.13137,-0.14584 -0.22581,-0.14403 z m -12.33919,0.78225 c -0.0776,0.005 -0.15092,0.0481 -0.19287,0.1208 l -0.58792,1.01833 c -0.0671,0.11627 -0.0276,0.2639 0.0887,0.33103 0.11627,0.0671 0.2639,0.0276 0.33103,-0.0887 l 0.58792,-1.01832 c 0.0671,-0.11627 0.0276,-0.26391 -0.0887,-0.33104 -0.0436,-0.0252 -0.0916,-0.0353 -0.13816,-0.0321 z m 14.35584,0 c -0.0465,-0.003 -0.0944,0.007 -0.13805,0.0321 -0.11628,0.0671 -0.15583,0.21476 -0.0887,0.33104 l 0.58792,1.01832 c 0.0671,0.11627 0.21477,0.15582 0.33103,0.0887 0.11628,-0.0671 0.15584,-0.21476 0.0887,-0.33104 l -0.58792,-1.01832 c -0.042,-0.0727 -0.11543,-0.11538 -0.19298,-0.1208 z m -9.81911,0.0365 c -0.1129,-0.001 -0.21406,0.0771 -0.23847,0.19204 l -0.58091,2.73438 c -0.0279,0.13133 0.0554,0.25953 0.1867,0.28742 0.13133,0.0279 0.25952,-0.0554 0.28742,-0.1867 l 0.58091,-2.73438 c 0.0279,-0.13133 -0.0554,-0.25952 -0.1867,-0.28742 -0.0164,-0.003 -0.0328,-0.005 -0.0489,-0.005 z m 5.27381,0.002 c -0.0161,1.3e-4 -0.0324,0.002 -0.0488,0.005 -0.13135,0.0278 -0.21472,0.15586 -0.18691,0.28722 l 0.57893,2.7348 c 0.0278,0.13135 0.15596,0.21471 0.28731,0.18691 0.13136,-0.0278 0.21472,-0.15597 0.18692,-0.28732 l -0.57903,-2.7346 c -0.0244,-0.11494 -0.12548,-0.19313 -0.23838,-0.19225 z m -2.63262,0.27581 c -0.13426,0 -0.24234,0.10808 -0.24234,0.24235 v 2.79536 c 0,0.13426 0.10808,0.24234 0.24234,0.24234 0.13427,0 0.24235,-0.10808 0.24235,-0.24234 v -2.79536 c 0,-0.13427 -0.10808,-0.24235 -0.24235,-0.24235 z m -4.44856,0.90327 c -0.0941,0.008 -0.17858,0.071 -0.20971,0.16672 l -0.36346,1.11831 c -0.0415,0.12769 0.0279,0.26391 0.15553,0.30542 0.12768,0.0415 0.2639,-0.028 0.30541,-0.15563 l 0.36346,-1.11821 c 0.0415,-0.12769 -0.0279,-0.2639 -0.15553,-0.30541 -0.0319,-0.0104 -0.0643,-0.0138 -0.0957,-0.0112 z m 8.89525,5.8e-4 c -0.0314,-0.003 -0.0638,5.7e-4 -0.0957,0.0111 -0.12769,0.0415 -0.19713,0.17772 -0.15565,0.30542 l 0.36336,1.1183 c 0.0415,0.1277 0.17773,0.19703 0.30542,0.15554 0.12769,-0.0415 0.19712,-0.17762 0.15563,-0.30531 l -0.36346,-1.11831 c -0.0311,-0.0958 -0.11548,-0.15873 -0.2096,-0.16672 z m -5.96789,0.62285 c -0.11239,0.0108 -0.20497,0.0991 -0.21724,0.21588 l -0.1229,1.16946 c -0.014,0.13353 0.0822,0.25225 0.21567,0.26629 0.13353,0.014 0.25235,-0.0821 0.2664,-0.21567 l 0.1229,-1.16935 c 0.014,-0.13353 -0.0821,-0.25235 -0.21567,-0.2664 -0.0167,-0.002 -0.0331,-0.002 -0.0492,-2e-4 z m 3.03268,0.001 c -0.0161,-0.002 -0.0326,-0.002 -0.0493,2e-4 -0.13353,0.0139 -0.22982,0.13266 -0.21587,0.26619 l 0.12216,1.16956 c 0.0139,0.13354 0.13265,0.22973 0.26619,0.21578 0.13353,-0.0139 0.22983,-0.13265 0.21588,-0.26619 l -0.12206,-1.16945 c -0.0122,-0.11685 -0.10466,-0.20518 -0.21704,-0.2161 z"
         style="fill:#f4f2f3;fill-opacity:1;stroke:none" />
      <path
         transform="matrix(0.20240041,0,0,0.20240041,255.07277,195.22972)"
         sodipodi:nodetypes="ccccc"
         inkscape:connector-curvature="0"
         id="path2150"
         d="m 469.09621,100.6068 -65.50955,38.06124 -41.41979,65.20654 60.59382,-44.88117 z"
         style="opacity:0.40900005;fill:#000000;fill-opacity:1;stroke:none;filter:url(#filter2222)" />
      <g
         transform="matrix(0.57574908,0,0,0.57574908,136.01351,103.24078)"
         id="g2847">
        <path
           sodipodi:type="star"
           style="fill:#ff5150;fill-opacity:1;stroke:none"
           id="path2096"
           sodipodi:sides="3"
           sodipodi:cx="124.97523"
           sodipodi:cy="142.65184"
           sodipodi:r1="18.791006"
           sodipodi:r2="9.395503"
           sodipodi:arg1="1.3089969"
           sodipodi:arg2="2.3561945"
           inkscape:flatsided="true"
           inkscape:rounded="1.35308e-16"
           inkscape:randomized="0"
           d="m 129.8387,160.80256 -23.01419,-23.01419 31.43796,-8.42378 z"
           inkscape:transform-center-y="-13.18648"
           transform="matrix(0.64804473,-0.3316906,-0.36122382,0.63205852,329.21345,156.86272)" />
        <path
           transform="matrix(-0.36122382,0.63205852,0.64804473,-0.3316906,297.96259,186.70411)"
           inkscape:transform-center-y="13.186483"
           d="m 129.8387,160.80256 -23.01419,-23.01419 31.43796,-8.42378 z"
           inkscape:randomized="0"
           inkscape:rounded="1.35308e-16"
           inkscape:flatsided="true"
           sodipodi:arg2="2.3561945"
           sodipodi:arg1="1.3089969"
           sodipodi:r2="9.395503"
           sodipodi:r1="18.791006"
           sodipodi:cy="142.65184"
           sodipodi:cx="124.97523"
           sodipodi:sides="3"
           id="path2099"
           style="fill:#f1f1f1;fill-opacity:1;stroke:none"
           sodipodi:type="star" />
        <path
           style="opacity:0.24299999;fill:#000000;stroke:none"
           d="m 331.85294,231.18507 23.41607,-15.75201 16.81513,-22.66472 z"
           id="path2112"
           inkscape:connector-curvature="0" />
      </g>
    </g>
  </g>
</svg>
