<?xml version="1.0" encoding="UTF-8" standalone="no"?>
<!-- Generator: Adobe Illustrator 19.0.0, SVG Export Plug-In . SVG Version: 6.00 Build 0)  -->

<svg
   xmlns:dc="http://purl.org/dc/elements/1.1/"
   xmlns:cc="http://creativecommons.org/ns#"
   xmlns:rdf="http://www.w3.org/1999/02/22-rdf-syntax-ns#"
   xmlns:svg="http://www.w3.org/2000/svg"
   xmlns="http://www.w3.org/2000/svg"
   xmlns:sodipodi="http://sodipodi.sourceforge.net/DTD/sodipodi-0.dtd"
   xmlns:inkscape="http://www.inkscape.org/namespaces/inkscape"
   version="1.1"
   id="Capa_1"
   x="0px"
   y="0px"
   viewBox="0 0 32 32"
   xml:space="preserve"
   inkscape:version="0.48.4 r9939"
   width="100%"
   height="100%"
   sodipodi:docname="warn.svg"><metadata
     id="metadata53"><rdf:RDF><cc:Work
         rdf:about=""><dc:format>image/svg+xml</dc:format><dc:type
           rdf:resource="http://purl.org/dc/dcmitype/StillImage" /></cc:Work></rdf:RDF></metadata><defs
     id="defs51" /><sodipodi:namedview
     pagecolor="#ffffff"
     bordercolor="#666666"
     borderopacity="1"
     objecttolerance="10"
     gridtolerance="10"
     guidetolerance="10"
     inkscape:pageopacity="0"
     inkscape:pageshadow="2"
     inkscape:window-width="1366"
     inkscape:window-height="744"
     id="namedview49"
     showgrid="false"
     fit-margin-top="0"
     fit-margin-left="0"
     fit-margin-right="0"
     fit-margin-bottom="0"
     inkscape:zoom="11.710706"
     inkscape:cx="-2.5332239"
     inkscape:cy="13.242929"
     inkscape:window-x="1360"
     inkscape:window-y="24"
     inkscape:window-maximized="1"
     inkscape:current-layer="Capa_1" /><path
     style="fill:#ff9500;fill-opacity:1"
     d="m 16.046972,1.5555507 c -1.805666,0 -3.384708,0.9634031 -4.2271,2.4121163 L 0.55811818,23.358575 c -1.39629073,2.841574 0.68168042,7.146784 4.22710072,7.085222 l 11.2617531,0 11.261753,0 c 3.984694,-0.498214 5.266302,-4.231286 4.2271,-7.085222 L 20.274073,3.967667 C 19.431681,2.5189538 17.852637,1.5555507 16.046972,1.5555507 z"
     id="path3004"
     inkscape:connector-curvature="0"
     sodipodi:nodetypes="scccccccs" /><path
     style="fill:#3b4145"
     d="m 19.84425,5.113574 10.142404,17.567234 c 0.371962,0.64423 0.585833,1.391101 0.585833,2.188426 0,2.421298 -1.962916,4.384334 -4.384333,4.384334 H 16.045807 L 12.538352,16.08564 16.045807,2.9177755 c 1.624038,0 3.040787,0.8836852 3.798443,2.1957985 z"
     id="path3"
     inkscape:connector-curvature="0" /><path
     style="fill:#525a61"
     d="M 12.247365,5.1135744 2.1049033,22.680808 c -0.3719055,0.64423 -0.5857769,1.391101 -0.5857769,2.188426 0,2.421298 1.9629176,4.384334 4.3843339,4.384334 H 16.045807 V 2.9177751 c -1.624037,0 -3.040786,0.8836859 -3.798442,2.1957993 z"
     id="path5"
     inkscape:connector-curvature="0" /><path
     style="fill:#975304;fill-opacity:1"
     d="M 28.467991,23.557692 18.325646,5.9906223 C 17.868509,5.1985185 17.029081,4.69871 16.121221,4.6730074 l 8.674528,22.8270256 h 1.392463 c 1.450341,0 2.630576,-1.180174 2.630576,-2.630573 10e-7,-0.460658 -0.121603,-0.914272 -0.350797,-1.311768 z"
     id="path7"
     inkscape:connector-curvature="0" /><path
     style="fill:#ff9500;fill-opacity:1"
     d="m 26.762241,23.557692 c 0.198154,0.397496 0.302792,0.85111 0.302792,1.311768 0,1.450345 -1.017719,2.630573 -2.269341,2.630573 H 5.9034603 c -1.4503411,0 -2.6305777,-1.180228 -2.6305777,-2.630573 0,-0.460658 0.1216046,-0.914272 0.3507398,-1.311768 L 13.76597,5.9906223 C 14.235988,5.176901 15.109347,4.671246 16.045807,4.671246 c 0.02514,0 0.05028,5.631e-4 0.07542,0.00187 0.77922,0.030412 1.498858,0.5290255 1.891078,1.3176148 l 8.749942,17.5670703 z"
     id="path9"
     inkscape:connector-curvature="0" /><path
     style="fill:#3b4145"
     d="m 16.045807,21.654071 v 2.922868 c 0.807309,0 1.461464,-0.654155 1.461464,-1.461466 0,-0.807248 -0.654155,-1.461402 -1.461464,-1.461402 z"
     id="path11"
     inkscape:connector-curvature="0" /><path
     style="fill:#525a61"
     d="m 16.045807,21.654071 c 0.161325,0 0.292293,0.654154 0.292293,1.461466 0,0.807302 -0.130968,1.461457 -0.292293,1.461457 -0.807308,0 -1.461463,-0.654155 -1.461463,-1.461457 0,-0.807312 0.654155,-1.461466 1.461463,-1.461466 z"
     id="path13"
     inkscape:connector-curvature="0" /><path
     style="fill:#3b4145"
     d="M 16.045807,9.0859403 V 19.9006 c 0.807309,0 1.461464,-0.654726 1.461464,-1.461465 v -7.891738 c 0,-0.8073021 -0.654155,-1.4614567 -1.461464,-1.4614567 z"
     id="path15"
     inkscape:connector-curvature="0" /><path
     style="fill:#525a61"
     d="m 16.045807,9.0859403 c 0.161325,0 0.292293,0.6541546 0.292293,1.4614567 v 7.891738 c 0,0.806684 -0.130968,1.461465 -0.292293,1.461465 -0.807308,0 -1.461463,-0.654726 -1.461463,-1.461465 v -7.891738 c 0,-0.8073021 0.654155,-1.4614567 1.461463,-1.4614567 z"
     id="path17"
     inkscape:connector-curvature="0" /><g
     id="g19"
     transform="translate(0,-456.055)" /><g
     id="g21"
     transform="translate(0,-456.055)" /><g
     id="g23"
     transform="translate(0,-456.055)" /><g
     id="g25"
     transform="translate(0,-456.055)" /><g
     id="g27"
     transform="translate(0,-456.055)" /><g
     id="g29"
     transform="translate(0,-456.055)" /><g
     id="g31"
     transform="translate(0,-456.055)" /><g
     id="g33"
     transform="translate(0,-456.055)" /><g
     id="g35"
     transform="translate(0,-456.055)" /><g
     id="g37"
     transform="translate(0,-456.055)" /><g
     id="g39"
     transform="translate(0,-456.055)" /><g
     id="g41"
     transform="translate(0,-456.055)" /><g
     id="g43"
     transform="translate(0,-456.055)" /><g
     id="g45"
     transform="translate(0,-456.055)" /><g
     id="g47"
     transform="translate(0,-456.055)" /></svg>